<svg width="1440" height="1024" viewBox="0 0 1440 1024" fill="none" xmlns="http://www.w3.org/2000/svg">
<g clip-path="url(#clip0_1_138)">
<rect width="1440" height="1024" fill="white"/>
<circle cx="738" cy="545" r="420" fill="#8D6E63"/>
<mask id="mask0_1_138" style="mask-type:alpha" maskUnits="userSpaceOnUse" x="318" y="125" width="840" height="840">
<path d="M1158 545C1158 776.96 969.96 965 738 965C506.04 965 318 776.96 318 545C318 313.04 506.04 125 738 125C969.96 125 1158 313.04 1158 545Z" fill="#D9D9D9"/>
</mask>
<g mask="url(#mask0_1_138)">
</g>
<g clip-path="url(#clip1_1_138)">
<path d="M434.934 194.433L429.227 204.014L428.359 197.917L427.49 191.966L423.892 197.772C421.907 200.965 420.046 203.578 419.798 203.578C419.674 203.578 419.922 200.965 420.419 197.772C420.915 194.579 420.791 191.966 420.295 191.966C419.674 191.966 419.178 192.401 419.178 192.982C419.178 193.708 417.441 196.466 415.456 199.224C413.347 201.982 411.982 203.288 412.23 202.127C412.479 200.965 413.099 197.046 413.471 193.417L414.215 186.885L410.99 193.417C406.896 201.691 406.275 202.417 407.02 197.337C407.888 191.966 406.772 192.401 402.43 199.659L398.708 205.756L398.087 199.949L397.467 194.143L394.738 198.498L392.008 202.853L391.884 198.643V194.288L387.542 199.224L383.2 204.159V197.627V191.24L379.354 198.788C377.245 202.998 375.136 206.481 374.64 206.481C374.143 206.481 372.779 204.014 371.538 201.111L369.305 195.595L367.072 200.675L364.839 205.61L363.97 200.965C362.73 194.288 360.869 193.853 360.869 200.24C360.869 208.949 360 209.53 351.564 207.207C341.639 204.449 341.391 204.449 344.74 208.659C348.214 213.013 347.842 213.159 339.778 209.385C331.838 205.756 331.466 205.756 334.319 209.675C336.428 212.433 336.428 212.723 334.567 211.852C333.327 211.417 329.605 210.546 326.255 209.965L320.176 209.094L321.169 214.32C322.037 219.255 321.045 221.433 319.308 218.094C318.935 217.368 317.447 215.917 315.958 215.046C313.601 213.594 313.477 213.739 314.345 218.094L315.214 222.739L308.886 222.303C302.311 221.723 301.319 222.303 304.42 225.352C305.413 226.368 306.281 227.674 306.281 228.255C306.281 228.69 301.567 230.432 295.736 231.884C284.818 234.787 282.213 236.819 289.285 237.109L293.255 237.255L289.533 238.416C287.548 238.996 283.95 239.577 281.717 239.722C279.36 239.867 275.266 241.754 271.916 244.367C266.333 249.012 266.333 249.012 254.547 247.996C248.096 247.415 240.28 245.964 237.054 244.803C233.829 243.787 224.524 241.754 216.336 240.593C208.148 239.432 199.836 238.125 197.726 237.69C194.501 237.109 194.873 237.545 199.96 240.738C203.185 242.625 205.791 244.512 205.791 244.658C205.791 244.948 202.069 244.658 197.478 244.077C192.764 243.496 183.459 242.335 176.512 241.464C167.703 240.303 159.887 238.271 149.962 234.206C142.146 231.013 135.571 228.69 135.323 228.981C135.075 229.271 137.06 230.868 139.913 232.61C142.767 234.206 145 235.803 145 236.093C145 236.384 139.293 235.077 132.346 233.19C122.048 230.432 115.969 229.706 101.578 229.852C85.8221 229.852 83.9612 229.997 86.5665 231.739C89.2958 233.48 88.0552 233.916 73.5399 234.787C64.7315 235.513 43.6409 235.368 26.5202 234.497C-4.24726 233.19 -4.74351 233.19 -24.3454 237.109C-37.7441 239.722 -42.3344 241.029 -38.6126 241.174C-28.5635 241.609 -36.0073 243.787 -53.8723 245.674C-63.301 246.69 -71.241 247.996 -71.4891 248.722C-71.8613 249.303 -69.1319 250.319 -65.6582 250.899L-59.0829 252.06L-65.286 253.077C-68.6357 253.657 -74.7147 254.238 -78.5607 254.238C-86.5007 254.383 -88.1135 256.27 -81.6622 258.012C-77.0719 259.173 -75.9554 258.447 -92.0835 264.254C-96.5497 265.995 -113.05 273.834 -128.682 281.963L-157.092 296.623L-169.747 311.284C-182.153 325.8 -182.525 326.38 -190.093 345.686C-194.187 356.573 -199.273 369.056 -201.383 373.411C-203.368 377.766 -209.323 392.862 -214.781 406.797C-220.116 420.732 -227.808 440.618 -231.902 451.07L-239.222 469.94L-240.338 521.47C-240.958 549.776 -241.331 597.242 -241.083 626.709L-240.71 680.562L-246.417 704.367L-252 728.173L-248.278 761.704C-244.184 797.848 -242.943 804.67 -243.936 786.381C-245.921 746.608 -245.921 733.979 -244.06 724.689L-242.075 715.254L-242.695 729.044C-243.068 738.044 -242.323 751.979 -240.586 768.962C-237.609 797.558 -237.361 807.719 -238.601 830.653L-239.346 845.895L-237.733 832.105C-236.74 824.557 -235.252 815.702 -234.259 812.509C-232.894 808.009 -232.77 801.767 -233.267 785.365C-233.639 773.607 -233.639 764.462 -233.267 765.043C-232.77 765.623 -230.289 774.042 -227.808 783.913L-223.218 801.767L-226.939 811.493C-230.537 821.073 -230.537 821.363 -229.669 838.637C-229.173 848.217 -228.8 855.33 -228.676 854.604C-228.552 853.733 -227.808 847.201 -227.188 840.088C-226.319 831.96 -224.21 821.799 -221.481 813.089L-217.014 799.009L-221.357 772.446C-223.714 757.785 -225.575 745.592 -225.327 745.301C-225.203 745.156 -222.969 749.946 -220.364 756.188C-216.022 766.639 -215.526 769.397 -213.541 790.735L-211.308 813.96V784.929L-211.183 755.898L-219.62 732.818L-228.056 709.738L-225.699 696.529C-219.123 659.659 -217.263 636.144 -217.263 588.968C-217.138 564.146 -216.642 535.115 -216.022 524.374C-215.029 504.778 -208.702 459.634 -205.849 450.199C-204.112 444.828 -180.912 393.733 -180.416 394.314C-180.044 394.604 -191.458 468.779 -193.691 480.101C-194.435 484.165 -194.807 494.326 -194.683 502.6L-194.311 517.842L-191.83 512.761L-189.348 507.681L-188.728 528.003C-188.108 547.599 -187.612 549.05 -185.503 536.712C-184.634 532.212 -184.262 535.405 -183.766 551.228L-183.021 571.549L-177.066 585.775C-173.841 593.613 -170.863 599.71 -170.491 599.419C-170.243 598.984 -171.235 592.162 -172.724 584.033C-175.329 570.388 -175.453 569.082 -173.593 564.727L-171.608 559.937L-169.498 565.598C-167.762 570.388 -167.513 576.049 -167.886 604.935C-168.134 623.66 -168.01 638.466 -167.638 638.176C-166.769 637.015 -160.318 599.71 -160.07 594.049C-159.946 591 -159.449 593.033 -158.829 599.129C-157.713 610.016 -158.705 619.886 -164.66 656.175C-167.638 674.901 -167.886 689.561 -165.156 695.368C-164.784 696.384 -162.427 687.239 -160.194 675.046C-156.1 653.127 -153.122 642.531 -154.487 654.288C-154.859 657.482 -156.1 678.094 -157.216 700.013L-159.449 739.931L-149.773 787.832C-144.562 814.251 -139.723 837.621 -139.103 840.088L-138.111 844.443L-137.987 840.088C-137.863 837.621 -137.366 834.863 -136.746 833.702C-136.126 832.54 -135.381 837.33 -134.885 846.04C-134.389 854.023 -133.768 865.926 -133.272 872.749L-132.528 885.087L-130.915 878.555C-128.682 868.975 -128.93 873.62 -131.659 898.877C-134.761 926.747 -134.637 931.537 -131.411 919.344C-130.171 914.408 -128.806 910.489 -128.558 910.78C-128.186 911.07 -129.054 919.489 -130.419 929.36C-133.272 950.407 -133.272 951.133 -131.535 948.23C-130.171 945.907 -130.171 945.907 -132.776 958.391C-134.637 967.245 -137.863 999.47 -136.994 1000.49C-136.622 1000.92 -136.002 1000.34 -135.753 999.47C-135.381 998.454 -134.141 996.131 -132.9 994.39L-130.543 991.051L-130.419 997.873V1004.55L-120.246 1005.57C-114.539 1006.15 -105.482 1006.44 -100.023 1006.15C-94.5647 1006 -63.9213 1006 -31.7891 1006.15C21.6818 1006.58 41.7799 1005.57 44.2612 1002.66C45.7499 1000.92 45.3777 986.841 43.6409 981.906C41.7799 976.68 41.7799 976.68 46.2462 978.713C50.8365 980.745 50.2162 979.148 44.2612 972.761C39.1746 967.536 39.4227 965.358 44.6334 968.552C45.874 969.423 46.9905 969.858 46.9905 969.423C46.9905 969.132 44.7574 963.036 41.904 955.923C28.8774 922.682 23.2946 903.667 19.5727 878.7C17.5877 865.491 15.7268 851.991 15.3546 848.798L14.7343 842.992L16.7193 849.959C17.8359 853.878 18.9524 856.781 19.2005 856.346C19.5727 855.91 19.2005 839.508 18.4562 819.767C17.5877 800.17 17.2155 783.768 17.5877 783.332C17.8359 782.897 19.2005 787.397 20.4412 793.203L22.7984 803.799L23.4187 779.849C24.163 753.14 23.9149 753.285 30.7384 775.204C32.3512 780.139 33.8399 784.058 33.964 783.913C34.2121 783.623 37.0655 778.833 40.2912 773.171C43.6409 767.51 46.9905 763.01 47.6109 763.01C48.3552 763.01 49.968 767.365 51.4568 772.591L54.0621 782.026L55.799 774.913C57.5359 767.946 57.784 767.655 63.739 765.768C72.5474 763.156 73.1677 763.301 71.803 767.365C70.1902 772.3 64.4834 797.267 64.9796 797.267C65.1037 797.267 67.709 792.913 70.6865 787.542C76.0212 777.816 87.4349 762.43 89.1718 762.43C89.668 762.43 91.4049 765.768 92.8937 769.978C94.8787 775.494 95.499 779.268 95.1268 784.494L94.5065 791.606L98.1043 787.542C101.702 783.478 102.074 780.865 99.7171 773.752C99.0968 771.865 100.586 770.268 106.541 766.785L114.232 762.14L113.736 766.785C113.24 770.994 113.612 771.575 120.56 776.365C124.654 779.123 128.251 781.155 128.5 780.72C128.748 780.429 128.127 778.107 127.135 775.639L125.15 771.284L130.857 767.365L136.44 763.446L140.161 768.817C142.271 771.72 144.504 774.042 145.124 774.042C145.744 774.042 147.357 771.284 148.846 767.946L151.575 761.849L154.801 769.397L158.151 777.091L164.106 767.51C167.455 762.14 170.557 758.365 171.053 759.091C171.549 759.672 173.41 762.72 175.023 765.768L178.249 771.284L180.978 766.204C182.467 763.301 184.08 760.978 184.452 760.978C184.948 760.978 186.437 763.156 187.677 765.768L190.035 770.413L191.771 765.333C195.741 753.72 194.997 754.011 199.587 761.414C201.821 765.188 204.054 768.236 204.55 768.236C204.922 768.236 206.535 765.333 208.024 761.704L210.753 755.172H224.896H239.039L240.528 750.092C242.513 743.124 243.63 742.689 248.592 747.188C253.679 751.688 254.795 751.253 255.912 744.285C256.408 741.527 257.401 738.915 258.145 738.334C259.013 737.608 259.261 738.624 258.889 741.237C258.021 746.608 259.51 746.027 264.472 738.915C268.69 732.963 268.938 732.818 271.296 735.286C274.521 738.624 274.645 738.479 276.382 731.947C278.119 725.27 278.987 724.544 291.766 720.48C303.428 716.851 302.559 716.851 302.559 720.48C302.559 723.963 305.04 722.802 305.04 719.173C305.165 717.867 305.909 714.819 306.777 712.351L308.266 707.996L311.74 716.706C313.601 721.496 315.71 729.044 316.578 733.399C317.571 739.931 319.804 744.285 327.744 756.624L337.545 771.865L336.676 795.09C336.18 807.864 335.188 819.621 334.567 821.073C333.699 822.96 333.575 833.556 333.947 850.83C334.815 878.555 335.684 888.861 337.297 885.958C337.669 885.087 339.654 895.248 341.515 908.602L344.865 932.988L341.763 955.778C340.026 968.407 338.413 979.148 338.165 979.729C337.421 981.18 340.895 1000.92 342.135 1002.37C343.004 1003.39 370.297 1004.26 389.403 1003.97C393.125 1003.97 402.926 1003.82 411.114 1003.68C431.336 1003.39 450.318 1002.23 451.186 1001.21C451.558 1000.78 452.179 996.567 452.427 991.777C452.923 983.793 453.171 983.213 455.28 984.664C456.645 985.39 457.637 985.825 457.637 985.39C457.637 985.1 454.288 977.116 450.194 967.681C446.1 958.246 442.998 949.536 443.37 948.23C443.742 946.923 446.72 942.714 450.07 938.795L456.149 931.537L457.017 845.169L457.885 758.801L453.419 712.786C449.821 675.046 449.201 664.014 449.821 650.805C450.566 634.257 451.93 631.354 453.419 642.676C454.288 649.934 456.273 650.079 456.521 642.966L456.645 638.321L457.637 643.257C458.134 645.869 460.119 649.789 461.98 651.966L465.205 655.74L464.461 651.676C463.468 647.031 466.074 628.886 467.686 628.886C468.307 628.886 468.803 631.063 468.927 633.531C468.927 638.031 469.051 637.886 471.656 630.773C473.145 626.564 474.634 623.08 475.006 623.08C475.378 623.08 478.356 626.128 481.581 629.612C484.807 633.241 487.66 636.144 487.909 636.144C488.157 636.144 487.785 632.805 487.04 628.741C486.172 623.37 486.296 619.886 487.412 615.387C488.777 610.161 489.149 609.725 490.018 612.193C490.514 613.79 491.01 616.983 491.134 619.451C491.382 623.66 491.382 623.66 492.995 617.999C493.864 614.661 494.98 606.677 495.476 600.29C496.097 591 496.717 588.678 498.082 589.258C499.322 589.694 499.819 592.597 499.943 598.258C500.067 606.387 500.067 606.387 501.804 602.032C503.044 598.839 503.416 593.903 502.92 582.436C502.3 568.356 502.424 567.485 504.037 571.549L505.774 575.904L505.898 570.098C506.146 561.534 507.635 559.647 509.992 565.453C511.853 569.953 513.217 570.678 532.819 578.517L553.786 586.791H569.914H586.042L595.223 579.678C604.155 572.711 604.651 572.565 616.313 571.549C622.889 570.969 629.092 570.388 630.084 569.953C631.201 569.662 637.156 572.856 643.359 577.21C654.276 584.759 654.649 584.904 657.874 582.581C660.479 580.694 661.1 579.243 661.1 574.307C661.1 563.856 656.882 552.244 650.555 545.857C645.716 540.921 644.351 537.438 647.205 537.438C647.701 537.438 652.167 541.357 657.254 546.002C665.814 553.985 669.164 555.873 701.048 570.388L735.661 586.065L752.658 609.58L769.654 633.241L772.508 645.869C773.997 652.982 777.594 668.949 780.324 681.433L785.286 704.222L784.418 734.415C783.549 768.091 784.542 762.43 767.049 831.815L760.35 858.523V885.813C760.35 916.15 761.59 926.602 768.538 955.488C776.974 990.18 775.858 988.003 785.783 990.18C790.125 991.196 792.11 990.615 800.05 986.116L809.354 980.745L811.712 969.858L814.193 958.826L809.727 952.439C800.918 939.811 797.32 930.811 794.591 914.844C792.234 901.054 792.11 898.006 793.35 883.635C794.095 874.781 794.839 868.684 794.963 869.845C795.211 873.62 797.196 869.265 802.531 852.427C808.486 833.556 809.851 829.928 809.975 833.847C809.975 838.347 811.836 836.75 817.543 827.315C825.731 814.251 831.065 802.638 832.182 795.525C832.678 792.042 833.795 789.429 834.539 789.574C835.284 789.864 836.648 787.252 837.393 783.768C839.005 777.526 840.99 773.462 840.99 776.655C840.99 777.671 841.611 778.397 842.231 778.397C842.975 778.397 843.472 774.333 843.472 768.962C843.472 761.269 843.844 759.817 845.333 760.398C846.821 761.123 847.194 760.107 847.318 755.753C847.318 749.366 849.303 736.882 849.551 741.237C849.799 746.753 851.039 742.253 852.9 728.899C853.893 721.496 855.382 714.819 856.25 714.238C856.994 713.657 857.863 708.722 858.111 703.061C858.359 697.4 859.104 693.19 859.724 693.626C860.344 694.061 860.84 688.255 860.84 680.562C860.84 668.078 861.957 663.288 863.694 668.369C864.066 669.385 864.438 666.336 864.438 661.546C864.562 655.014 864.934 653.418 865.927 655.014C866.795 656.611 866.919 653.708 866.299 644.998C865.803 636.725 865.927 632.515 866.919 631.934C867.912 631.209 867.788 628.886 866.423 623.66C863.818 613.5 863.942 612.483 868.036 613.354C869.897 613.79 887.018 613.209 906.123 611.903L940.861 609.725L977.707 597.532L1014.55 585.339L1047.93 557.469C1080.43 530.325 1081.55 529.309 1087.38 518.567C1090.73 512.616 1097.8 500.713 1103.13 492.004C1111.82 477.488 1113.43 473.569 1110.08 473.569C1109.46 473.569 1102.14 479.665 1093.71 487.214C1071.75 506.955 1030.93 538.163 1024.48 540.05C1021.5 541.067 1002.02 546.292 981.181 551.953C944.831 561.679 942.101 562.114 911.706 565.017C882.427 567.775 879.202 567.775 867.664 565.743C860.84 564.582 854.885 563.566 854.389 563.566C853.769 563.566 853.397 562.405 853.397 560.808C853.397 557.905 856.498 556.308 862.205 556.308C863.942 556.308 876.72 551.953 890.739 546.728C904.634 541.502 919.398 535.986 923.492 534.389C927.586 532.938 943.962 522.922 959.842 512.18L988.749 492.73L1006.99 465.295C1017.04 450.199 1028.82 432.78 1033.29 426.393C1040.61 415.942 1042.34 412.023 1051.4 385.604C1059.84 361.363 1061.2 355.992 1059.71 355.267C1058.6 354.831 1057.11 355.557 1056.11 357.299C1043.58 378.201 999.418 437.135 992.595 442.215C990.114 443.957 973.489 454.408 955.748 465.295C927.338 482.714 920.39 486.343 897.439 495.488C870.145 506.374 863.818 508.116 851.412 508.261L843.844 508.406L835.284 498.681C829.577 492.149 827.716 489.246 829.577 489.826C833.795 491.133 832.802 489.391 824.986 481.843C821.14 477.924 815.806 470.956 813.324 466.166C808.61 457.311 808.61 455.86 813.449 459.924C822.505 467.327 809.603 448.312 792.358 428.716C783.549 418.845 776.726 410.426 776.974 409.99C777.346 409.7 779.455 410.136 781.689 411.007C785.41 412.313 784.914 411.587 777.719 404.184C773.376 399.684 767.794 393.733 765.312 391.265L760.97 386.475L765.064 387.346C767.173 387.927 769.034 387.927 769.034 387.491C769.034 387.056 766.305 384.733 762.831 382.12C756.38 377.33 755.759 374.863 761.094 374.863C762.831 374.863 763.824 374.282 763.451 373.411C763.079 372.54 761.342 371.96 759.605 371.96C754.023 371.96 742.609 363.831 736.282 355.121L730.203 346.993L735.289 348.009C738.143 348.589 740.5 348.589 740.5 348.299C740.5 347.573 727.473 336.251 719.905 330.155C717.92 328.703 718.417 328.558 723.131 329.138L728.714 330.009L721.89 325.364C683.059 298.801 674.374 292.124 654.649 272.818C643.111 261.641 633.806 251.915 633.806 251.335C633.806 250.609 635.295 250.028 637.156 250.028C640.381 250.028 640.381 249.883 635.295 245.528C632.441 243.061 630.084 240.593 630.084 240.013C630.084 239.432 632.193 238.271 634.799 237.4L639.389 235.948L634.426 235.658C631.697 235.513 627.355 235.077 624.75 234.497L620.035 233.626L624.501 228.255L629.092 222.739L622.516 225.207C618.795 226.658 614.204 228.255 612.343 228.835L608.745 229.852L612.095 224.626C615.941 218.82 615.941 218.82 609.862 221.723C603.535 224.771 603.287 224.481 607.009 218.965C608.745 216.207 610.234 213.594 610.234 213.159C610.234 212.723 607.629 213.304 604.403 214.465C595.719 217.513 595.223 217.368 596.835 212.143C597.58 209.82 597.952 207.498 597.58 207.207C597.332 206.917 593.858 208.514 589.764 210.836C585.67 213.159 582.196 214.755 581.948 214.465C581.7 214.32 582.444 211.562 583.561 208.659C584.553 205.61 585.298 202.853 585.05 202.707C584.801 202.417 580.211 203.723 574.752 205.756C569.418 207.788 564.827 209.385 564.579 209.385C564.331 209.385 565.324 207.352 566.812 205.03C570.41 199.078 569.045 199.514 561.974 206.481C558.748 209.675 555.771 212.288 555.275 212.288C554.902 212.288 555.275 210.11 556.143 207.498C560.361 195.45 560.237 195.159 553.662 201.401C549.444 205.465 547.955 206.336 548.699 204.304C549.195 202.707 549.94 199.369 550.312 197.046C551.056 192.692 551.056 192.837 543.489 200.385L535.797 208.223V203.288L535.673 198.498L531.951 203.578C529.345 207.207 528.353 207.788 528.849 205.756C530.214 199.369 531.082 191.966 530.462 191.966C530.09 191.966 527.981 195.595 525.872 199.949C523.763 204.304 521.654 207.933 521.281 207.933C521.033 207.933 521.033 205.175 521.53 201.691L522.274 195.595L518.428 200.675C514.21 206.336 513.714 204.885 516.567 194.143C517.56 190.224 518.18 186.74 517.932 186.45C517.684 186.16 515.575 188.918 513.341 192.692C508.999 199.659 507.262 199.369 507.262 191.53C507.262 186.014 505.153 187.901 503.416 194.869C501.68 201.401 500.563 201.256 499.198 194.579C498.206 189.934 498.082 189.934 497.461 197.046L496.717 204.304L492.623 197.337C490.266 193.417 488.033 190.659 487.66 191.095C487.288 191.675 486.544 194.724 486.172 198.208L485.427 204.304L483.318 198.643L481.209 192.982L476.743 197.917C473.393 201.546 472.525 201.982 473.641 199.514C475.378 195.74 474.262 195.304 471.036 198.788C468.803 201.111 468.803 200.965 470.54 195.159C471.532 191.821 472.153 189.063 471.656 189.063C471.284 189.063 468.431 191.53 465.205 194.579C456.521 202.998 455.9 202.998 459.498 194.869C461.235 190.659 462.6 187.176 462.352 186.885C462.104 186.595 457.761 190.369 452.799 195.304L443.618 204.159L444.487 196.901L445.479 189.788L440.765 194.869C436.05 200.095 436.05 199.804 439.524 190.079C440.641 187.176 441.385 184.708 441.137 184.708C440.889 184.708 438.16 189.063 434.934 194.433Z" fill="white"/>
<path d="M1172.49 632.079C1171.12 635.999 1167.28 658.062 1167.28 661.837C1167.28 662.998 1168.89 665.611 1170.87 667.788C1173.6 670.836 1174.59 673.449 1175.09 678.965C1175.46 682.884 1175.22 687.384 1174.59 688.69C1173.85 690.432 1173.85 692.319 1174.59 693.916C1175.59 695.948 1175.22 697.255 1173.23 699.142C1171.62 700.884 1171 702.771 1171.49 704.803C1171.87 706.545 1172.24 709.448 1172.24 711.335C1172.24 713.222 1173.85 716.415 1175.71 718.593C1179.06 722.222 1179.43 723.963 1181.29 742.108C1186.26 787.977 1206.98 978.422 1207.72 983.358C1208.46 988.874 1211.94 991.341 1211.94 986.406C1211.94 983.648 1186.38 752.559 1185.26 745.737C1184.15 738.624 1186.5 743.269 1192.71 760.252C1195.81 769.107 1200.15 778.687 1202.38 781.881L1206.35 787.397L1211.07 784.784C1214.92 782.607 1217.02 779.558 1222.61 768.236C1226.2 760.543 1230.3 751.108 1231.42 747.043L1233.52 739.931L1234.39 747.188C1239.11 787.977 1238.98 793.929 1233.15 809.896C1230.05 818.46 1218.14 874.345 1218.14 880.297C1218.14 882.039 1221.49 884.942 1229.31 890.312C1230.8 891.329 1231.17 896.409 1231.29 920.94C1231.42 940.246 1232.16 955.488 1233.52 965.213C1234.64 973.487 1235.51 981.18 1235.51 982.342C1235.51 983.648 1230.8 987.277 1223.48 991.486C1216.78 995.26 1210.95 998.889 1210.45 999.76C1206.98 1005.42 1224.34 1007.02 1233.15 1001.79C1235.76 1000.34 1239.85 999.034 1242.33 999.034C1245.81 999.034 1247.05 998.309 1248.16 995.26C1249.4 992.212 1249.28 990.761 1247.79 987.567C1246.18 984.229 1245.93 980.89 1246.8 967.681C1247.3 958.971 1248.41 948.52 1249.16 944.601C1249.9 940.537 1250.52 930.521 1250.52 922.102C1250.4 910.779 1250.89 904.828 1252.63 898.877C1254.86 891.038 1255.11 890.893 1260.45 890.022C1263.42 889.587 1267.89 888.716 1270.25 888.135L1274.71 887.119L1278.31 896.119C1280.42 901.054 1283.52 907.586 1285.26 910.344C1290.22 918.473 1291.34 923.989 1290.59 936.327C1290.1 944.746 1290.72 951.714 1292.95 964.778C1295.8 980.745 1295.93 982.632 1294.32 989.164C1293.07 993.954 1292.83 997.002 1293.69 998.744C1295.31 1002.23 1303.12 1004.84 1308.58 1003.82C1310.94 1003.39 1316.65 1003.82 1321.24 1004.84C1327.94 1006.29 1330.54 1006.44 1333.02 1004.99C1336.12 1003.39 1336.12 1003.1 1334.26 1000.63C1333.15 999.18 1326.7 995.551 1320 992.648C1313.17 989.599 1307.34 986.116 1306.85 984.954C1306.47 983.648 1307.09 970.874 1308.09 956.359C1310.44 926.021 1309.57 913.973 1303.87 893.796C1302.01 886.974 1300.77 881.168 1301.14 880.877C1301.51 880.587 1303.74 879.861 1305.98 879.281C1308.09 878.845 1309.95 877.539 1309.95 876.668C1309.95 875.652 1308.83 868.104 1307.47 859.684C1305.85 849.233 1302.5 836.75 1296.8 819.767C1288.61 795.671 1288.48 794.8 1288.61 782.607C1288.61 775.639 1289.6 766.059 1290.59 761.269C1291.71 756.478 1292.58 750.237 1292.58 747.334C1292.58 744.43 1292.95 742.108 1293.57 742.108C1294.07 742.108 1297.17 748.35 1300.39 755.898C1304.61 765.768 1306.23 771.429 1306.23 775.929C1306.23 779.413 1308.95 791.316 1312.43 803.509L1318.51 824.847L1316.15 829.637C1314.17 833.556 1314.04 835.298 1315.03 841.104C1316.52 849.088 1318.26 850.104 1318.88 843.282C1319.38 837.476 1322.35 837.04 1323.97 842.701C1325.21 847.346 1323.59 850.54 1319 852.572C1314.91 854.314 1315.53 856.781 1319.87 856.781C1321.98 856.781 1323.59 857.362 1323.59 858.233C1323.59 861.281 1326.2 859.394 1329.05 854.169C1330.67 851.265 1332.4 845.459 1332.77 841.395C1333.52 834.427 1333.27 833.556 1329.42 828.04L1325.21 822.234L1324.34 799.154C1323.47 778.542 1323.1 775.349 1319.87 766.784C1318.01 761.559 1316.03 754.446 1315.53 750.817C1315.03 747.188 1313.3 740.076 1311.81 734.85C1310.2 729.624 1308.33 722.657 1307.59 719.318C1306.72 715.544 1304.61 711.625 1301.88 708.867C1297.91 704.948 1296.92 704.512 1288.73 704.658C1283.89 704.658 1279.55 704.222 1278.93 703.496C1278.44 702.771 1277.69 698.271 1277.32 693.481L1276.57 684.771L1278.93 694.206C1280.3 699.432 1281.04 701.319 1280.67 698.561C1280.3 695.803 1279.55 687.965 1278.93 681.142C1278.44 674.32 1277.44 667.498 1276.95 666.046C1276.33 664.159 1276.45 663.578 1277.44 664.304C1278.19 664.885 1279.18 667.643 1279.68 670.401C1280.05 673.159 1280.79 675.191 1281.04 674.755C1282.41 673.159 1278.68 658.933 1275.09 652.111C1266.77 636.289 1253.13 634.837 1242.58 648.772C1237.25 655.595 1234.39 667.352 1236.13 674.61L1237.12 678.965L1237.99 674.61C1238.74 671.127 1238.98 671.852 1239.23 678.965C1239.48 686.513 1239.73 686.949 1240.35 682.594C1241.09 677.949 1241.22 678.239 1241.96 686.368C1242.46 691.158 1243.45 696.674 1244.19 698.706C1245.19 701.464 1245.31 700.738 1244.81 694.497C1243.95 684.626 1245.93 684.771 1247.42 694.787L1248.66 702.625L1244.32 703.496C1241.84 703.932 1237.25 704.367 1234.14 704.367C1227.69 704.367 1224.47 707.125 1220.5 716.27C1215.78 726.867 1210.7 745.592 1210.7 751.833C1210.7 755.317 1210.32 758.075 1209.83 758.075C1208.46 758.075 1190.1 724.979 1187.75 718.302C1186.63 715.254 1186.01 711.19 1186.38 709.303C1187.25 705.674 1184.52 696.674 1181.67 692.755C1180.67 691.594 1179.31 686.078 1178.69 680.562C1177.45 671.562 1177.57 670.401 1179.93 666.627C1182.04 663.288 1182.29 661.837 1181.17 657.772C1180.43 655.014 1179.19 649.934 1178.32 646.305C1177.57 642.676 1176.21 637.16 1175.34 633.967L1173.73 628.16L1172.49 632.079ZM1275.71 697.545C1277.19 703.351 1277.19 704.367 1275.71 704.367C1274.71 704.367 1273.97 703.206 1273.97 701.609C1273.97 700.158 1273.6 696.674 1273.22 694.061C1272.11 687.239 1273.6 689.416 1275.71 697.545ZM1271.98 700.013L1272.73 705.093L1270.87 700.738C1268.88 695.948 1268.26 688.836 1270.12 692.755C1270.74 693.916 1271.49 697.255 1271.98 700.013ZM1251.51 700.738C1251.64 703.206 1251.39 703.206 1250.4 701.464C1249.78 700.303 1249.28 697.69 1249.28 695.658C1249.28 692.319 1249.4 692.319 1250.4 694.932C1251.02 696.529 1251.51 699.142 1251.51 700.738ZM1253.75 701.029C1253.37 702.48 1253.13 701.609 1253.13 699.287C1253.13 696.819 1253.37 695.803 1253.75 696.674C1253.99 697.69 1253.99 699.722 1253.75 701.029Z" fill="white"/>
</g>
<path d="M343.41 680.944V679.792L343.602 678.544L343.506 677.488L343.41 676.336L343.314 675.088L343.506 673.936L343.314 672.688L343.41 671.536V670.384L343.602 669.328L343.506 668.08L343.602 666.928L343.41 665.872L343.602 664.72V663.568L343.506 662.32L343.41 661.264V660.016L343.602 658.864V657.808L343.41 656.464L343.314 655.312L343.506 654.16L343.41 653.008L343.506 651.952V648.4L343.314 647.248V644.944L343.41 643.792L343.314 642.64L343.506 641.488L343.602 640.432V639.184L343.41 637.936L343.506 636.784V633.424L343.41 632.176L343.506 631.024L343.602 629.968L343.41 628.72L343.602 627.568V626.416L343.41 625.36L343.506 624.112L343.41 622.96L343.602 621.712V620.656L343.314 619.408V618.352L343.602 617.2L343.41 615.952L344.466 614.8H347.058L347.922 614.896H349.17L350.13 614.8H351.474L352.626 614.896H353.874L354.93 614.8L356.178 614.896L357.33 614.8L358.29 614.896L359.538 614.8L360.594 614.896H361.842L362.898 614.8L364.146 614.896H365.01L366.162 614.8L367.314 614.896L368.466 614.8L369.81 614.896H370.866L372.018 614.8H374.226L375.474 614.896L376.53 615.088L377.778 615.184L378.738 615.28L379.986 615.568L381.138 615.856L382.194 616.144L383.25 616.72L384.114 617.008L385.266 617.584L386.322 618.256L387.378 618.736L388.146 619.504L389.01 620.272L390.45 621.904L391.314 622.768L391.89 623.824L392.274 624.784L392.85 625.84L393.33 626.896L393.522 627.952L393.81 629.104L394.002 630.064L394.194 631.312L394.578 632.368V633.424L394.482 635.824V636.88L394.29 638.032V639.088L393.906 640.24L393.522 641.392L393.33 642.544L392.658 643.6L392.178 644.56L391.794 645.616L390.93 646.48L390.45 647.344L389.778 648.304L388.818 648.976L388.05 649.744L386.994 650.416L386.226 651.088L384.978 651.664L384.114 652.24L383.058 652.624L382.098 653.104L380.85 653.392L378.738 653.968L377.586 654.256H376.146L374.994 654.352L374.13 654.448L371.826 654.544H368.274L367.218 654.448L365.97 654.544L365.01 654.448L363.954 654.544H361.554L360.306 654.448H356.85L355.794 654.544H354.834L353.586 654.448H348.978L348.018 655.696L347.922 656.848L347.826 657.904L347.922 659.152L347.826 660.304V661.36L348.018 662.512L347.922 663.76L348.114 666.064L347.826 667.12L348.018 668.272L348.114 669.424V671.728L347.922 672.784L347.826 673.936L348.114 675.184L348.018 676.24V677.488L348.114 678.544L348.018 679.792L347.826 680.944L346.77 682L345.81 682.096L344.562 682L343.41 680.944ZM349.266 650.032H350.13L351.474 650.128H352.53L353.778 650.032L354.642 650.128L355.89 650.032H356.946L358.194 650.128H359.442L360.498 650.032L361.458 650.128L362.61 650.032L363.858 650.128L365.01 650.032L366.066 650.128L367.506 650.032L368.562 650.128H371.826L374.13 650.032H375.186L376.242 649.84L377.49 649.744L378.642 649.456L379.794 649.264L380.754 648.88L381.906 648.4L382.77 648.016L384.018 647.44L384.69 646.768L385.554 646L386.61 645.232L387.378 644.368L387.762 643.408L388.53 642.448L388.818 641.392L389.01 640.432L389.586 639.184V638.128L389.682 636.976L389.778 635.92L389.97 633.616V632.56L389.682 631.408L389.298 630.256L389.106 629.2L388.914 628.144L388.146 627.088L387.666 626.032L386.994 625.168L386.61 624.112L385.65 623.344L384.69 622.672L383.826 621.904L383.058 621.328L381.81 620.944L380.754 620.56L379.506 620.176L378.354 619.792L377.202 619.696L374.994 619.312L373.65 619.216L371.346 619.312H370.386L369.138 619.216H366.738L365.49 619.312L364.242 619.216H362.034L360.882 619.312H358.482L357.234 619.216H353.682L352.722 619.312L351.57 619.216H350.13L349.074 619.312L348.018 620.464V621.52L348.114 622.672L347.922 623.92L348.114 624.88V626.032L348.018 627.28L347.922 628.432L347.826 629.488L348.114 630.736L347.922 631.888L348.018 633.04L347.922 634.096L347.826 635.248V636.4L348.114 637.456L347.826 638.704V641.008L348.018 642.16L347.922 643.216L347.826 644.368L347.922 645.52L348.018 646.576L347.826 647.824V648.976L349.266 650.032ZM451.899 680.944L451.419 679.888L450.747 678.832L450.555 677.872L449.787 676.72L449.307 675.664L449.211 674.608L448.731 673.648L447.963 672.688L447.771 671.536L447.195 670.48L446.715 669.52L446.139 668.464L445.755 667.312L445.467 666.352L444.795 665.296L443.451 664.24L442.011 664.144L440.859 664.24H439.995L438.747 664.144L437.691 664.24L436.251 664.144L435.099 664.24L433.947 664.144H433.083L431.931 664.24H429.339L428.187 664.144L427.035 664.24L426.171 664.144H424.923L423.579 664.24H422.331L421.371 664.144H413.307L411.963 664.24H410.811L409.947 664.144H407.547L405.915 665.296L405.243 666.256L405.147 667.312L404.379 668.368L404.091 669.424L403.515 670.48L403.131 671.536L402.555 672.688L402.363 673.552L401.787 674.704L401.211 675.76L401.019 676.72L400.347 677.776L400.059 678.928L399.579 679.888L398.907 681.04L397.371 682H395.931L394.875 682.096L394.011 680.944L394.395 679.888L394.779 678.832L395.547 677.872L395.931 676.816L396.219 675.664L396.699 674.608L397.083 673.552L397.851 672.592L398.331 671.536L398.619 670.48L399.099 669.424L399.483 668.464L399.963 667.312L400.635 666.256L401.019 665.2L401.307 664.24L401.979 663.184L402.267 662.128L402.939 661.072L403.227 659.92L403.515 658.864L404.091 657.904L404.571 656.752L405.147 655.888L405.339 654.832L405.819 653.68L406.587 652.624L406.971 651.568L407.451 650.608L407.643 649.552L408.411 648.496L408.891 647.44L409.179 646.288L409.659 645.328L410.043 644.272L410.619 643.216L411.099 642.064L411.579 641.008L411.771 639.952L412.443 638.992L412.827 637.936L413.403 636.976L413.595 635.824L414.075 634.864L414.651 633.712L415.323 632.656L415.803 631.696L415.899 630.544L416.667 629.488L417.051 628.528L417.627 627.376L417.723 626.32L418.299 625.264L418.683 624.304L419.451 623.248L419.739 622.288L420.027 621.232L420.795 620.176L420.987 619.024L421.659 618.064L421.851 616.912L422.619 615.952L424.059 614.896H425.595L426.555 614.8L428.283 615.856L428.667 617.008L429.339 618.064L429.723 619.12L430.299 620.176L430.683 621.136L431.067 622.288L431.355 623.248L431.931 624.208L432.315 625.264L432.987 626.416L433.179 627.376L433.947 628.432L434.427 629.584L434.619 630.64L435.195 631.6L435.579 632.752L435.963 633.712L436.539 634.864L436.923 635.824L437.595 636.88L437.787 637.936L438.555 638.992L439.323 641.008L439.803 642.064L440.283 643.216L440.571 644.176L441.243 645.232L441.531 646.384L441.915 647.44L442.587 648.4L443.067 649.552L443.355 650.512L443.931 651.664L444.411 652.624L444.891 653.68L445.563 655.792L446.139 656.752L446.619 657.904L447.771 660.016L447.867 661.072L448.539 662.128L449.115 663.088L449.595 664.144L449.787 665.2L450.267 666.352L450.939 667.312L451.131 668.464L451.803 669.424L452.283 670.48L452.667 671.536L453.147 672.592L453.435 673.552L454.011 674.704L454.299 675.664L455.259 677.776L455.739 678.928L456.411 679.984L456.795 681.04L455.931 682L454.587 682.096H453.339L451.899 680.944ZM409.467 659.728L410.715 659.824H412.731L414.171 659.728H415.131L416.091 659.824L417.339 659.728H418.491L419.643 659.824L420.795 659.728L421.947 659.824L423.003 659.728L424.347 659.824H425.499L426.363 659.728H427.707L428.667 659.824L429.915 659.728H432.219L433.275 659.824H434.427L435.771 659.728L437.019 659.824L437.787 659.728L438.939 659.824L440.187 659.728L441.339 659.824L442.203 658.672L441.531 657.616L441.147 656.656L440.667 655.504L440.091 654.448L439.803 653.392L439.227 652.432L438.747 651.376L438.459 650.224L437.307 648.112L436.923 647.056L436.443 646L436.251 644.944L435.579 643.984L435.195 642.928L434.523 641.776L434.043 640.816L433.947 639.664L433.467 638.704L432.891 637.552L431.547 634.384L431.163 633.328L430.395 632.368L429.915 631.216L429.723 630.16L429.147 629.104L428.571 628.048L428.091 626.992L427.707 626.032L427.419 624.976L426.651 623.92L426.555 622.768L426.075 621.808L425.115 621.712L424.635 622.768L424.059 623.92L423.579 624.976L423.291 625.936L422.715 627.088L422.331 628.048L421.851 629.2L421.275 630.16L420.891 631.312L419.739 633.424L419.547 634.384L418.971 635.536L418.491 636.592L418.011 637.648L417.723 638.608L417.243 639.664L416.667 640.816L416.283 641.776L415.803 642.928L415.323 643.888L414.843 645.04L414.171 646L413.979 647.152L413.499 648.208L413.019 649.168L412.635 650.32L412.155 651.376L411.483 652.336L411.195 653.392L410.427 654.544L410.235 655.6L409.659 656.656L409.371 657.712L408.891 658.768L409.467 659.728ZM473.952 677.68H475.296L476.448 677.584L477.504 677.68H485.28L486.624 677.584L487.68 677.68H490.08L491.328 677.584H494.784L495.84 677.68H497.952L499.392 677.584H500.448L501.6 677.68H510.624L511.776 677.584L512.736 678.64L512.832 679.792V680.944L511.392 682.096H505.632L504.768 682H502.368L501.12 682.096H498.912L497.856 682H496.512L495.456 682.096L494.496 682H493.344L492 682.096L490.944 682L489.696 682.096H487.488L486.624 682L485.472 682.096H482.976L481.92 682L480.672 682.096H479.424L478.368 682L477.216 682.096L476.352 682H475.008L473.856 682.096L472.704 682L471.648 682.096L470.688 682H469.248L468.384 680.848V679.696L468.288 678.544L468.096 677.392V676.24L468.288 675.184L468.096 673.936L468.384 672.688L468.096 671.536V670.384L468.384 669.232L468.288 668.08V666.928L468.384 665.872L468.096 664.72V663.472L468.192 662.32V658.864L468.096 657.808L468.288 656.56L468.384 655.312V654.256L468.096 653.104L468.384 651.856L468.096 650.704L468.288 649.648V648.496L468.096 647.248V645.04L468.192 643.888V642.736L468.384 641.584L468.096 640.336L468.384 639.088L468.192 637.936L468.096 636.784L468.384 635.728L468.096 634.576L468.384 633.424L468.288 632.272L468.192 631.024V629.872L468.288 628.816L468.192 627.664V626.512L468.288 625.36V624.208L468.096 622.96L468.192 621.712V619.408L468.288 618.352L468.384 617.104L468.096 616.048L469.344 614.896L470.4 614.8H471.648L472.8 615.952L472.704 617.2L472.992 618.352L472.704 619.408L472.896 620.56L472.992 621.616L472.896 622.864L472.704 624.016L472.8 625.072L472.896 626.32L472.8 627.472V628.528L472.896 629.68V630.832L472.8 631.888L472.896 633.136L472.8 634.192L472.896 635.344L472.8 636.496L472.992 637.648L472.8 638.896V641.008L472.704 642.256L472.992 643.312V646.768L472.704 647.92L472.896 649.072L472.992 650.32L472.8 651.376L472.992 652.432L472.896 653.68L472.704 654.736L472.896 655.984L472.992 657.136L472.896 658.192L472.704 659.44L472.896 660.496L472.8 661.648V662.8L472.896 663.952V666.256L472.8 667.312L472.896 668.56L472.704 670.864L472.992 672.016V674.128L472.8 675.376L472.896 676.432L473.952 677.68ZM564.938 595.312L564.266 596.176L563.402 596.944L562.442 597.712L561.578 598.576L560.714 599.248L560.042 600.016L558.986 600.784L558.026 601.648L557.354 602.416L556.394 603.28L555.434 603.952L554.858 604.816L553.994 605.488L553.226 606.352L552.17 607.216L551.402 607.888L549.29 608.752L548.33 608.656H546.986L546.41 607.888L547.37 607.12L548.33 606.16L548.81 605.392L549.578 604.528L550.346 603.76L551.114 602.8L552.17 602.032L552.938 601.264L553.61 600.496L554.474 599.536L555.05 598.672L556.106 597.904L556.682 597.136L557.738 596.176L558.218 595.504L560.33 594.64H562.346L563.786 594.544H564.746L564.938 595.312ZM530.762 677.584H536.618L537.674 677.68H541.034L542.378 677.584H549.29L550.346 677.68L551.498 677.584L552.458 677.68L553.61 677.584L554.858 677.68H556.202L557.162 677.584L558.314 677.68L559.562 677.584L560.522 677.68L561.77 677.584H564.074L565.034 677.68L566.282 677.584L567.53 677.68H570.89L572.138 677.584L572.906 678.736L573.098 679.792L573.002 680.848L571.466 682H570.314L569.354 682.096L568.298 682L566.954 682.096L565.898 682L564.458 682.096L563.402 682L562.346 682.096H557.642L556.586 682H554.282L553.13 682.096L551.786 682L550.538 682.096H548.426L547.178 682L546.218 682.096L544.778 682H539.114L537.77 682.096L536.81 682L535.754 682.096L534.602 682H532.106L530.858 682.096H529.802L528.458 682L527.402 682.096H526.346L525.002 680.848L525.098 679.792L525.29 678.64L525.098 677.392L525.194 676.24V675.088L525.098 673.936L525.194 672.784L525.29 671.536L525.002 670.48V669.232L525.098 668.176L525.002 667.024V665.872L525.194 664.72L525.29 663.568V662.416L525.194 661.264L525.098 660.016L525.29 658.96L525.098 656.56L525.194 655.408L525.098 654.256L525.194 653.104V651.952L525.29 650.8L525.002 649.552L525.29 648.496L525.002 647.344L525.098 646.192V644.944L525.002 643.792L525.194 642.736L525.002 641.488L525.098 640.336V639.184L525.194 637.936L525.098 636.88L525.194 635.632L525.002 634.576V631.12L525.29 629.872L525.098 628.72V627.568L525.29 626.416L525.002 625.264L525.098 624.208L525.29 621.808V620.56L525.002 619.408L525.194 617.104V615.952L526.442 614.896L527.402 614.8H529.802L530.762 614.896L531.914 614.8H533.066L534.218 614.896L535.562 614.8H536.618L537.866 614.896H538.826L539.978 614.8H541.226L542.474 614.896L543.722 614.8L544.874 614.896L546.026 614.8L547.178 614.896H548.33L549.386 614.8L550.25 614.896L551.402 614.8H552.554L553.706 614.896H555.05L556.01 614.8L557.162 614.896H558.41L559.754 614.8L560.618 614.896L562.058 614.8H563.114L564.074 614.896H565.514L566.57 614.8L567.722 614.896L568.97 614.8L569.93 614.896L571.082 614.8L572.042 615.856L571.946 617.104L572.042 618.16L570.602 619.312H568.202L567.146 619.216L565.898 619.312L564.65 619.216H563.594L562.538 619.312L561.194 619.216L560.138 619.312L558.89 619.216L557.834 619.312L556.49 619.216L555.434 619.312L554.378 619.216H553.034L552.074 619.312L550.826 619.216H549.674L548.33 619.312L547.37 619.216H546.218L544.874 619.312L543.722 619.216L542.762 619.312H541.226L540.074 619.216L539.018 619.312H538.058L536.714 619.216H535.466L534.506 619.312H532.106L530.954 619.216L529.61 620.464L529.802 621.52L529.706 622.864L529.802 623.92L529.706 625.072L529.898 626.32L529.706 628.72V629.776L529.898 631.024L529.706 632.08V633.424L529.802 634.48V635.632L529.898 636.88L529.61 638.032V640.336L529.802 642.736V643.888L530.954 645.04L532.01 645.136L533.258 645.04H536.81L538.058 645.136H540.074L541.322 645.04H542.57L543.626 645.136H548.138L549.578 645.04H550.73L551.978 645.136L552.938 645.04H553.994L555.434 645.136L556.49 645.04L557.738 645.136L558.89 645.04H564.458L565.898 645.136L566.954 645.04L567.914 645.136L569.162 646.096L569.354 647.344L569.258 648.304L568.106 649.456H565.61L564.746 649.552H559.85L558.698 649.456H555.434L554.282 649.552L553.13 649.456L551.978 649.552L550.634 649.456H549.578L548.426 649.552H546.986L545.834 649.456L544.778 649.552L543.626 649.456H542.474L541.514 649.552H538.922L537.77 649.456H535.37L534.314 649.552H533.162L532.202 649.456L530.954 649.552L529.61 650.704V651.856L529.898 653.104L529.61 654.256L529.802 655.312L529.61 656.464L529.706 657.616L529.61 658.864V660.016L529.898 661.168V663.472L529.706 664.816V667.024L529.802 668.272L529.706 669.52L529.802 670.672V671.824L529.898 672.88L529.706 674.128L529.898 675.28L529.802 676.528L530.762 677.584ZM615.858 683.248L614.514 683.056H613.266L612.018 682.864H611.154L609.81 682.576L608.658 682.48L607.506 682.192L606.354 681.904L605.394 681.52L604.242 681.136L603.282 680.848L602.034 680.272L601.17 679.792L600.114 679.408L599.058 678.832L597.906 678.256L595.89 677.008L595.026 676.336L594.258 675.472L593.298 674.8L592.338 673.936L591.57 673.072L590.898 672.304L590.226 671.44L589.65 670.576L588.882 669.616L588.21 668.56L587.73 667.6L586.962 666.64L585.906 664.432L585.426 663.472L585.138 662.32L584.85 661.168L584.274 660.112L584.178 659.056L583.602 657.904L583.41 656.752L583.506 655.6L583.122 654.544L582.93 653.392L582.738 652.144L583.026 650.896L582.93 649.84V647.536V646.288V645.232L582.834 643.984L583.122 642.832L583.218 641.68L583.41 640.624L583.794 639.376L584.082 638.416L584.178 637.168L584.466 636.112L584.85 634.96L585.618 634L585.906 632.944L586.386 631.888L586.674 630.832L587.538 629.776L588.018 628.72L588.69 627.856L589.362 626.992L590.13 625.936L590.514 625.168L591.57 624.208L592.242 623.44L593.202 622.672L593.97 621.904L594.642 621.136L595.506 620.464L596.754 619.792L597.33 619.12L598.674 618.448L599.634 617.872L600.402 617.392L601.65 616.816L602.514 616.432L603.858 615.952L604.914 615.664L605.97 615.28L607.122 614.896L608.178 614.704L609.042 614.416L610.386 614.224L611.538 614.128L612.69 613.936L613.746 613.84L614.898 613.744H615.954H618.354H619.41L620.562 613.84L621.906 613.936L623.154 614.032L624.21 614.32L625.362 614.416L626.514 614.8L627.762 614.992L628.914 615.376L629.682 615.76L630.93 616.144L631.986 616.624L633.234 617.008L634.002 617.488L635.058 618.064L635.922 618.64L636.882 619.216L637.842 619.888L639.09 620.752L639.666 621.424L640.818 622.096L641.682 623.056L642.354 623.824L643.122 624.688L643.698 625.456L644.658 626.416L645.33 627.376L645.906 628.336L646.482 629.296L647.154 630.352L647.634 631.408L647.922 632.368L648.594 633.52L648.69 634.576L649.362 635.728L649.458 636.688L649.938 637.84L650.226 638.992V640.144L650.418 641.392L650.802 642.448V643.6L651.186 644.848L650.898 646L651.186 647.152V649.36L651.09 650.512L650.898 651.664L651.09 652.816L650.61 654.064L650.514 655.216L650.322 656.272V657.424L650.034 658.48L649.65 659.728L649.17 660.784L648.978 661.936L648.69 662.992L648.114 663.952L647.73 665.008L647.25 666.064L646.674 667.024L645.81 668.08L645.522 668.944L644.85 669.904L644.178 670.864L643.41 671.728L642.738 672.592L641.97 673.552L641.01 674.224L640.05 675.088L639.378 675.856L638.418 676.528L637.554 677.2L636.69 677.872L635.73 678.448L634.578 678.928L633.714 679.504L632.37 679.984L631.314 680.464L630.354 680.944L629.202 681.232L628.05 681.52L627.186 682L625.842 682.288L624.978 682.48L623.826 682.672L622.674 682.864L621.426 682.96L620.274 683.056L619.218 683.152H618.066L615.858 683.248ZM619.602 678.64H620.85L621.81 678.448L622.962 678.352L624.114 678.16L625.266 677.872L626.226 677.488L627.378 677.296L628.53 676.912L629.874 676.336L630.738 676.048L631.602 675.472L632.658 674.8L633.618 674.224L634.866 673.744L635.538 673.072L636.69 672.208L637.362 671.44L638.418 670.672L639.09 669.808L639.954 669.04L640.626 668.08L641.202 667.216L641.778 666.16L642.45 665.2L643.026 664.336L643.602 663.184L643.986 662.224L644.466 661.072L644.658 660.112L645.33 658.96L645.426 657.808L645.618 656.656L646.098 655.6L646.194 654.352L646.482 653.2V652.048L646.578 650.992L646.77 649.84L646.482 647.44L646.578 646.384L646.482 645.232L646.194 643.984L646.386 642.928L646.194 641.872L645.81 640.72L645.522 639.472L645.33 638.416L644.946 637.264L644.562 636.208L644.082 635.248L643.602 634.096L643.314 633.136L642.546 632.08L642.162 631.216L641.298 630.256L640.626 629.2L640.242 628.432L639.474 627.472L638.418 626.608L637.65 625.936L637.074 625.072L635.058 623.632L634.29 622.96L633.234 622.384L632.274 621.808L631.314 621.232L630.258 620.848L629.01 620.272L627.954 619.984L627.186 619.696L624.786 619.024L623.538 618.736L622.77 618.544L621.426 618.448L620.274 618.352L619.122 618.256L618.066 618.16H615.858L614.706 618.256H613.362L612.306 618.352L610.962 618.64L609.81 618.832L608.946 619.12L607.602 619.312L606.642 619.696L605.49 620.08L604.338 620.368L603.282 620.848L602.418 621.328L601.362 621.904L600.21 622.576L599.25 623.248L598.386 623.824L597.426 624.496L596.562 625.36L595.794 626.128L594.93 626.992L594.162 627.76L593.586 628.72L592.914 629.68L592.146 630.544L591.474 631.504L590.898 632.656L590.61 633.616L589.842 634.768L589.746 635.824L589.362 636.784L588.882 637.936L588.402 639.088L588.114 640.24L587.922 641.392L587.73 642.544L587.634 643.696L587.538 644.848L587.442 645.904L587.25 647.056L587.538 649.36L587.346 650.512L587.73 651.664L587.826 652.816L587.922 653.968L588.114 655.12L588.402 656.272L588.498 657.424L588.69 658.48L589.074 659.632L589.458 660.592L589.842 661.648L590.322 662.704L590.802 663.856L591.282 664.816L591.858 665.776L592.722 666.736L593.298 667.6L594.066 668.656L594.834 669.52L595.698 670.288L596.37 671.056L597.234 671.824L598.002 672.592L598.77 673.264L599.73 673.936L600.882 674.608L601.842 674.992L602.898 675.664L604.818 676.624L606.162 676.912L606.93 677.392L607.986 677.584L609.234 677.968L610.29 678.16L611.634 678.352L612.498 678.544H613.938L614.994 678.64L615.954 678.832L619.602 678.64Z" fill="black"/>
<path d="M712.779 609.529C707.316 609.486 701.484 609.861 695.977 610.984C692.747 613.295 689.842 615.908 687.24 618.737L691.641 619.892L682.753 624.287C675.154 634.931 671.36 647.527 671.145 658.584C670.879 672.416 675.189 684.253 682.449 692.708L685.549 692.469L684.812 695.223C688.021 698.366 691.663 700.924 695.674 702.811C700.335 704.046 705.148 705 709.722 705.455C705.907 703.049 702.46 699.71 699.49 695.808L693.831 693.662L696.064 690.757C690.102 680.892 686.59 668.882 686.525 658.822C686.482 653.923 687.262 648.525 688.758 643.148L682.688 644.904L690.124 638.725C691.706 634.216 693.744 629.793 696.216 625.739C700.66 618.461 706.579 612.339 713.581 609.542C713.299 609.542 713.039 609.542 712.779 609.521V609.529ZM722.231 611.821C713.299 611.643 705.343 618.301 699.555 627.777C697.495 631.138 695.739 634.845 694.33 638.639L698.471 642.953L693.072 642.368C691.338 648.069 690.384 653.793 690.427 658.779C690.492 668.275 694.07 680.307 700.031 689.716C700.075 689.803 700.14 689.889 700.183 689.955L705.451 691.494L704.086 695.266C709.44 701.575 715.966 705.651 723.055 705.477C727.5 705.369 731.597 703.526 735.218 700.447L733.266 694.746L739.012 696.588C740.768 694.507 742.372 692.122 743.824 689.521C748.941 680.329 751.846 668.687 751.868 659.625C751.889 650.216 748.984 638.075 743.716 628.471C741.115 623.723 737.993 619.641 734.437 616.708L731.38 620.083L726.221 612.365C724.92 612.036 723.597 611.847 722.231 611.821ZM725.267 644.731L726.589 646.118C727.326 646.877 728.042 647.657 728.757 648.438L731.922 648.091L731.684 651.95C733.397 654.205 734.914 656.676 735.976 659.516L736.237 660.21L735.976 660.882C734.35 665.326 730.622 670.399 726.329 673.998L725.072 675.039L723.836 673.998C719.478 670.399 715.446 665.825 713.039 660.73L712.627 659.863L713.061 658.996C715.402 654.335 719.695 649.912 723.857 646.031L725.267 644.731ZM725.115 650.259C722.47 652.796 719.977 655.484 718.156 658.107C722.362 658.432 727.196 658.367 731.055 658.172C729.516 655.31 727.413 652.752 725.115 650.259ZM718.242 662.009C720.064 664.849 722.448 667.538 725.072 669.879C727.478 667.559 729.689 664.676 731.12 662.074C727.261 662.291 722.557 662.356 718.242 662.009Z" fill="black"/>
<path d="M770.692 680.944V679.792L770.884 678.544L770.788 677.488L770.692 676.336L770.596 675.088L770.788 673.936L770.596 672.688L770.692 671.536V670.384L770.884 669.328L770.788 668.08L770.884 666.928L770.692 665.872L770.884 664.72V663.568L770.788 662.32L770.692 661.264V660.016L770.884 658.864V657.808L770.692 656.464L770.596 655.312L770.788 654.16L770.692 653.008L770.788 651.952V648.4L770.596 647.248V644.944L770.692 643.792L770.596 642.64L770.788 641.488L770.884 640.432V639.184L770.692 637.936L770.788 636.784V633.424L770.692 632.176L770.788 631.024L770.884 629.968L770.692 628.72L770.884 627.568V626.416L770.692 625.36L770.788 624.112L770.692 622.96L770.884 621.712V620.656L770.596 619.408V618.352L770.884 617.2L770.692 615.952L771.748 614.8H774.34L775.204 614.896H776.452L777.412 614.8H778.756L779.908 614.896H781.156L782.212 614.8L783.46 614.896L784.612 614.8L785.572 614.896L786.82 614.8L787.876 614.896H789.124L790.18 614.8L791.428 614.896H792.292L793.444 614.8L794.596 614.896L795.748 614.8L797.092 614.896H798.148L799.3 614.8H801.508L802.756 614.896L803.812 615.088L805.06 615.184L806.02 615.28L807.268 615.568L808.42 615.856L809.476 616.144L810.532 616.72L811.396 617.008L812.548 617.584L813.604 618.256L814.66 618.736L815.428 619.504L816.292 620.272L817.732 621.904L818.596 622.768L819.172 623.824L819.556 624.784L820.132 625.84L820.612 626.896L820.804 627.952L821.092 629.104L821.284 630.064L821.476 631.312L821.86 632.368V633.424L821.764 635.824V636.88L821.572 638.032V639.088L821.188 640.24L820.804 641.392L820.612 642.544L819.94 643.6L819.46 644.56L819.076 645.616L818.212 646.48L817.732 647.344L817.06 648.304L816.1 648.976L815.332 649.744L814.276 650.416L813.508 651.088L812.26 651.664L811.396 652.24L810.34 652.624L809.38 653.104L808.132 653.392L806.02 653.968L804.868 654.256H803.428L802.276 654.352L801.412 654.448L799.108 654.544H795.556L794.5 654.448L793.252 654.544L792.292 654.448L791.236 654.544H788.836L787.588 654.448H784.132L783.076 654.544H782.116L780.868 654.448H776.26L775.3 655.696L775.204 656.848L775.108 657.904L775.204 659.152L775.108 660.304V661.36L775.3 662.512L775.204 663.76L775.396 666.064L775.108 667.12L775.3 668.272L775.396 669.424V671.728L775.204 672.784L775.108 673.936L775.396 675.184L775.3 676.24V677.488L775.396 678.544L775.3 679.792L775.108 680.944L774.052 682L773.092 682.096L771.844 682L770.692 680.944ZM776.548 650.032H777.412L778.756 650.128H779.812L781.06 650.032L781.924 650.128L783.172 650.032H784.228L785.476 650.128H786.724L787.78 650.032L788.74 650.128L789.892 650.032L791.14 650.128L792.292 650.032L793.348 650.128L794.788 650.032L795.844 650.128H799.108L801.412 650.032H802.468L803.524 649.84L804.772 649.744L805.924 649.456L807.076 649.264L808.036 648.88L809.188 648.4L810.052 648.016L811.3 647.44L811.972 646.768L812.836 646L813.892 645.232L814.66 644.368L815.044 643.408L815.812 642.448L816.1 641.392L816.292 640.432L816.868 639.184V638.128L816.964 636.976L817.06 635.92L817.252 633.616V632.56L816.964 631.408L816.58 630.256L816.388 629.2L816.196 628.144L815.428 627.088L814.948 626.032L814.276 625.168L813.892 624.112L812.932 623.344L811.972 622.672L811.108 621.904L810.34 621.328L809.092 620.944L808.036 620.56L806.788 620.176L805.636 619.792L804.484 619.696L802.276 619.312L800.932 619.216L798.628 619.312H797.668L796.42 619.216H794.02L792.772 619.312L791.524 619.216H789.316L788.164 619.312H785.764L784.516 619.216H780.964L780.004 619.312L778.852 619.216H777.412L776.356 619.312L775.3 620.464V621.52L775.396 622.672L775.204 623.92L775.396 624.88V626.032L775.3 627.28L775.204 628.432L775.108 629.488L775.396 630.736L775.204 631.888L775.3 633.04L775.204 634.096L775.108 635.248V636.4L775.396 637.456L775.108 638.704V641.008L775.3 642.16L775.204 643.216L775.108 644.368L775.204 645.52L775.3 646.576L775.108 647.824V648.976L776.548 650.032ZM879.181 680.944L878.701 679.888L878.029 678.832L877.837 677.872L877.069 676.72L876.589 675.664L876.493 674.608L876.013 673.648L875.245 672.688L875.053 671.536L874.477 670.48L873.997 669.52L873.421 668.464L873.037 667.312L872.749 666.352L872.077 665.296L870.733 664.24L869.293 664.144L868.141 664.24H867.277L866.029 664.144L864.973 664.24L863.533 664.144L862.381 664.24L861.229 664.144H860.365L859.213 664.24H856.621L855.469 664.144L854.317 664.24L853.453 664.144H852.205L850.861 664.24H849.613L848.653 664.144H840.589L839.245 664.24H838.093L837.229 664.144H834.829L833.197 665.296L832.525 666.256L832.429 667.312L831.661 668.368L831.373 669.424L830.797 670.48L830.413 671.536L829.837 672.688L829.645 673.552L829.069 674.704L828.493 675.76L828.301 676.72L827.629 677.776L827.341 678.928L826.861 679.888L826.189 681.04L824.653 682H823.213L822.157 682.096L821.293 680.944L821.677 679.888L822.061 678.832L822.829 677.872L823.213 676.816L823.501 675.664L823.981 674.608L824.365 673.552L825.133 672.592L825.613 671.536L825.901 670.48L826.381 669.424L826.765 668.464L827.245 667.312L827.917 666.256L828.301 665.2L828.589 664.24L829.261 663.184L829.549 662.128L830.221 661.072L830.509 659.92L830.797 658.864L831.373 657.904L831.853 656.752L832.429 655.888L832.621 654.832L833.101 653.68L833.869 652.624L834.253 651.568L834.733 650.608L834.925 649.552L835.693 648.496L836.173 647.44L836.461 646.288L836.941 645.328L837.325 644.272L837.901 643.216L838.381 642.064L838.861 641.008L839.053 639.952L839.725 638.992L840.109 637.936L840.685 636.976L840.877 635.824L841.357 634.864L841.933 633.712L842.605 632.656L843.085 631.696L843.181 630.544L843.949 629.488L844.333 628.528L844.909 627.376L845.005 626.32L845.581 625.264L845.965 624.304L846.733 623.248L847.021 622.288L847.309 621.232L848.077 620.176L848.269 619.024L848.941 618.064L849.133 616.912L849.901 615.952L851.341 614.896H852.877L853.837 614.8L855.565 615.856L855.949 617.008L856.621 618.064L857.005 619.12L857.581 620.176L857.965 621.136L858.349 622.288L858.637 623.248L859.213 624.208L859.597 625.264L860.269 626.416L860.461 627.376L861.229 628.432L861.709 629.584L861.901 630.64L862.477 631.6L862.861 632.752L863.245 633.712L863.821 634.864L864.205 635.824L864.877 636.88L865.069 637.936L865.837 638.992L866.605 641.008L867.085 642.064L867.565 643.216L867.853 644.176L868.525 645.232L868.813 646.384L869.197 647.44L869.869 648.4L870.349 649.552L870.637 650.512L871.213 651.664L871.693 652.624L872.173 653.68L872.845 655.792L873.421 656.752L873.901 657.904L875.053 660.016L875.149 661.072L875.821 662.128L876.397 663.088L876.877 664.144L877.069 665.2L877.549 666.352L878.221 667.312L878.413 668.464L879.085 669.424L879.565 670.48L879.949 671.536L880.429 672.592L880.717 673.552L881.293 674.704L881.581 675.664L882.541 677.776L883.021 678.928L883.693 679.984L884.077 681.04L883.213 682L881.869 682.096H880.621L879.181 680.944ZM836.749 659.728L837.997 659.824H840.013L841.453 659.728H842.413L843.373 659.824L844.621 659.728H845.773L846.925 659.824L848.077 659.728L849.229 659.824L850.285 659.728L851.629 659.824H852.781L853.645 659.728H854.989L855.949 659.824L857.197 659.728H859.501L860.557 659.824H861.709L863.053 659.728L864.301 659.824L865.069 659.728L866.221 659.824L867.469 659.728L868.621 659.824L869.485 658.672L868.813 657.616L868.429 656.656L867.949 655.504L867.373 654.448L867.085 653.392L866.509 652.432L866.029 651.376L865.741 650.224L864.589 648.112L864.205 647.056L863.725 646L863.533 644.944L862.861 643.984L862.477 642.928L861.805 641.776L861.325 640.816L861.229 639.664L860.749 638.704L860.173 637.552L858.829 634.384L858.445 633.328L857.677 632.368L857.197 631.216L857.005 630.16L856.429 629.104L855.853 628.048L855.373 626.992L854.989 626.032L854.701 624.976L853.933 623.92L853.837 622.768L853.357 621.808L852.397 621.712L851.917 622.768L851.341 623.92L850.861 624.976L850.573 625.936L849.997 627.088L849.613 628.048L849.133 629.2L848.557 630.16L848.173 631.312L847.021 633.424L846.829 634.384L846.253 635.536L845.773 636.592L845.293 637.648L845.005 638.608L844.525 639.664L843.949 640.816L843.565 641.776L843.085 642.928L842.605 643.888L842.125 645.04L841.453 646L841.261 647.152L840.781 648.208L840.301 649.168L839.917 650.32L839.437 651.376L838.765 652.336L838.477 653.392L837.709 654.544L837.517 655.6L836.941 656.656L836.653 657.712L836.173 658.768L836.749 659.728ZM901.233 677.68H902.577L903.729 677.584L904.785 677.68H912.561L913.905 677.584L914.961 677.68H917.361L918.609 677.584H922.065L923.121 677.68H925.233L926.673 677.584H927.729L928.881 677.68H937.905L939.057 677.584L940.017 678.64L940.113 679.792V680.944L938.673 682.096H932.913L932.049 682H929.649L928.401 682.096H926.193L925.137 682H923.793L922.737 682.096L921.777 682H920.625L919.281 682.096L918.225 682L916.977 682.096H914.769L913.905 682L912.753 682.096H910.257L909.201 682L907.953 682.096H906.705L905.649 682L904.497 682.096L903.633 682H902.289L901.137 682.096L899.985 682L898.929 682.096L897.969 682H896.529L895.665 680.848V679.696L895.569 678.544L895.377 677.392V676.24L895.569 675.184L895.377 673.936L895.665 672.688L895.377 671.536V670.384L895.665 669.232L895.569 668.08V666.928L895.665 665.872L895.377 664.72V663.472L895.473 662.32V658.864L895.377 657.808L895.569 656.56L895.665 655.312V654.256L895.377 653.104L895.665 651.856L895.377 650.704L895.569 649.648V648.496L895.377 647.248V645.04L895.473 643.888V642.736L895.665 641.584L895.377 640.336L895.665 639.088L895.473 637.936L895.377 636.784L895.665 635.728L895.377 634.576L895.665 633.424L895.569 632.272L895.473 631.024V629.872L895.569 628.816L895.473 627.664V626.512L895.569 625.36V624.208L895.377 622.96L895.473 621.712V619.408L895.569 618.352L895.665 617.104L895.377 616.048L896.625 614.896L897.681 614.8H898.929L900.081 615.952L899.985 617.2L900.273 618.352L899.985 619.408L900.177 620.56L900.273 621.616L900.177 622.864L899.985 624.016L900.081 625.072L900.177 626.32L900.081 627.472V628.528L900.177 629.68V630.832L900.081 631.888L900.177 633.136L900.081 634.192L900.177 635.344L900.081 636.496L900.273 637.648L900.081 638.896V641.008L899.985 642.256L900.273 643.312V646.768L899.985 647.92L900.177 649.072L900.273 650.32L900.081 651.376L900.273 652.432L900.177 653.68L899.985 654.736L900.177 655.984L900.273 657.136L900.177 658.192L899.985 659.44L900.177 660.496L900.081 661.648V662.8L900.177 663.952V666.256L900.081 667.312L900.177 668.56L899.985 670.864L900.273 672.016V674.128L900.081 675.376L900.177 676.432L901.233 677.68ZM1002.37 680.944L1001.89 679.888L1001.22 678.832L1001.02 677.872L1000.26 676.72L999.776 675.664L999.68 674.608L999.2 673.648L998.432 672.688L998.24 671.536L997.664 670.48L997.184 669.52L996.608 668.464L996.224 667.312L995.936 666.352L995.264 665.296L993.92 664.24L992.48 664.144L991.328 664.24H990.464L989.216 664.144L988.16 664.24L986.72 664.144L985.568 664.24L984.416 664.144H983.552L982.4 664.24H979.808L978.656 664.144L977.504 664.24L976.64 664.144H975.392L974.048 664.24H972.8L971.84 664.144H963.776L962.432 664.24H961.28L960.416 664.144H958.016L956.384 665.296L955.712 666.256L955.616 667.312L954.848 668.368L954.56 669.424L953.984 670.48L953.6 671.536L953.024 672.688L952.832 673.552L952.256 674.704L951.68 675.76L951.488 676.72L950.816 677.776L950.528 678.928L950.048 679.888L949.376 681.04L947.84 682H946.4L945.344 682.096L944.48 680.944L944.864 679.888L945.248 678.832L946.016 677.872L946.4 676.816L946.688 675.664L947.168 674.608L947.552 673.552L948.32 672.592L948.8 671.536L949.088 670.48L949.568 669.424L949.952 668.464L950.432 667.312L951.104 666.256L951.488 665.2L951.776 664.24L952.448 663.184L952.736 662.128L953.408 661.072L953.696 659.92L953.984 658.864L954.56 657.904L955.04 656.752L955.616 655.888L955.808 654.832L956.288 653.68L957.056 652.624L957.44 651.568L957.92 650.608L958.112 649.552L958.88 648.496L959.36 647.44L959.648 646.288L960.128 645.328L960.512 644.272L961.088 643.216L961.568 642.064L962.048 641.008L962.24 639.952L962.912 638.992L963.296 637.936L963.872 636.976L964.064 635.824L964.544 634.864L965.12 633.712L965.792 632.656L966.272 631.696L966.368 630.544L967.136 629.488L967.52 628.528L968.096 627.376L968.192 626.32L968.768 625.264L969.152 624.304L969.92 623.248L970.208 622.288L970.496 621.232L971.264 620.176L971.456 619.024L972.128 618.064L972.32 616.912L973.088 615.952L974.528 614.896H976.064L977.024 614.8L978.752 615.856L979.136 617.008L979.808 618.064L980.192 619.12L980.768 620.176L981.152 621.136L981.536 622.288L981.824 623.248L982.4 624.208L982.784 625.264L983.456 626.416L983.648 627.376L984.416 628.432L984.896 629.584L985.088 630.64L985.664 631.6L986.048 632.752L986.432 633.712L987.008 634.864L987.392 635.824L988.064 636.88L988.256 637.936L989.024 638.992L989.792 641.008L990.272 642.064L990.752 643.216L991.04 644.176L991.712 645.232L992 646.384L992.384 647.44L993.056 648.4L993.536 649.552L993.824 650.512L994.4 651.664L994.88 652.624L995.36 653.68L996.032 655.792L996.608 656.752L997.088 657.904L998.24 660.016L998.336 661.072L999.008 662.128L999.584 663.088L1000.06 664.144L1000.26 665.2L1000.74 666.352L1001.41 667.312L1001.6 668.464L1002.27 669.424L1002.75 670.48L1003.14 671.536L1003.62 672.592L1003.9 673.552L1004.48 674.704L1004.77 675.664L1005.73 677.776L1006.21 678.928L1006.88 679.984L1007.26 681.04L1006.4 682L1005.06 682.096H1003.81L1002.37 680.944ZM959.936 659.728L961.184 659.824H963.2L964.64 659.728H965.6L966.56 659.824L967.808 659.728H968.96L970.112 659.824L971.264 659.728L972.416 659.824L973.472 659.728L974.816 659.824H975.968L976.832 659.728H978.176L979.136 659.824L980.384 659.728H982.688L983.744 659.824H984.896L986.24 659.728L987.488 659.824L988.256 659.728L989.408 659.824L990.656 659.728L991.808 659.824L992.672 658.672L992 657.616L991.616 656.656L991.136 655.504L990.56 654.448L990.272 653.392L989.696 652.432L989.216 651.376L988.928 650.224L987.776 648.112L987.392 647.056L986.912 646L986.72 644.944L986.048 643.984L985.664 642.928L984.992 641.776L984.512 640.816L984.416 639.664L983.936 638.704L983.36 637.552L982.016 634.384L981.632 633.328L980.864 632.368L980.384 631.216L980.192 630.16L979.616 629.104L979.04 628.048L978.56 626.992L978.176 626.032L977.888 624.976L977.12 623.92L977.024 622.768L976.544 621.808L975.584 621.712L975.104 622.768L974.528 623.92L974.048 624.976L973.76 625.936L973.184 627.088L972.8 628.048L972.32 629.2L971.744 630.16L971.36 631.312L970.208 633.424L970.016 634.384L969.44 635.536L968.96 636.592L968.48 637.648L968.192 638.608L967.712 639.664L967.136 640.816L966.752 641.776L966.272 642.928L965.792 643.888L965.312 645.04L964.64 646L964.448 647.152L963.968 648.208L963.488 649.168L963.104 650.32L962.624 651.376L961.952 652.336L961.664 653.392L960.896 654.544L960.704 655.6L960.128 656.656L959.84 657.712L959.36 658.768L959.936 659.728ZM1045.98 683.248L1044.92 683.056L1043.68 683.152L1041.37 682.768L1040.12 682.576L1038.88 682.48L1037.72 682.192L1036.57 681.904L1035.61 681.616L1034.65 681.424L1033.5 681.04L1032.25 680.56L1031.1 680.176L1030.04 679.696L1029.18 679.216L1028.12 678.544L1027.26 678.064L1026.2 677.392L1025.15 676.72L1024.38 676.144L1023.13 675.376L1022.46 674.512L1021.4 673.744L1020.73 672.976L1020.06 672.112L1019.29 671.248L1018.33 670.288L1017.85 669.328L1016.99 668.464L1016.6 667.504L1016.03 666.544L1015.36 665.392L1014.88 664.432L1014.49 663.376L1014.11 662.32L1013.82 661.168L1013.44 660.016L1012.96 658.96L1012.57 657.808V656.656L1012.28 655.504L1012.09 654.352V653.296L1011.8 652.048L1011.61 650.896L1011.52 649.648L1011.61 647.344V646.192L1011.8 645.04V643.984L1012 642.64L1012.38 641.584L1012.28 640.528L1012.76 639.376L1012.86 638.224L1013.34 636.976L1013.44 635.92L1014.01 634.864L1014.49 633.712L1014.78 632.656L1015.26 631.6L1016.03 630.544L1016.6 629.68L1016.99 628.72L1017.56 627.664L1018.33 626.704L1019.2 625.84L1019.68 624.88L1020.44 624.016L1021.5 623.248L1022.27 622.384L1023.13 621.712L1024.09 620.944L1025.72 619.6L1026.78 619.024L1027.55 618.352L1028.89 617.872L1029.76 617.392L1030.91 616.816L1031.87 616.432L1033.12 615.952L1034.27 615.664L1035.23 615.184L1036.28 614.992L1037.34 614.608L1039.55 614.224L1040.89 614.128L1041.85 613.84H1043.2L1044.44 613.744H1045.69L1047.71 613.648L1049.15 613.744H1050.2L1051.36 613.936L1052.41 614.128L1053.56 614.224L1054.91 614.416L1057.4 614.896L1058.27 615.184L1059.32 615.568L1060.48 615.952L1061.72 616.24L1062.88 616.624L1063.93 617.104L1064.89 617.584L1065.95 618.16L1067 618.544L1068.35 619.216L1070.08 620.272L1070.56 621.904L1069.6 623.728L1067.87 624.016L1067 623.44L1065.76 622.96L1064.8 622.576L1063.84 622.096L1062.97 621.616L1061.82 621.04L1059.8 620.272L1058.36 620.08L1057.31 619.696L1056.44 619.408L1055.1 619.12L1053.08 618.64L1051.93 618.544L1050.88 618.448L1049.44 618.352L1048.57 618.256L1047.42 618.16H1045.02H1043.77L1042.62 618.352L1041.37 618.448L1040.12 618.544L1039.26 618.832L1038.11 619.024L1036.96 619.312L1035.71 619.6L1034.65 619.984L1033.5 620.368L1032.64 620.944L1031.58 621.424L1030.52 621.904L1029.37 622.384L1028.41 623.056L1027.64 623.824L1026.68 624.496L1025.72 625.168L1024.86 625.936L1023.9 626.8L1023.32 627.76L1022.46 628.624L1021.79 629.488L1021.02 630.544L1020.44 631.504L1019.96 632.464L1019.39 633.424L1019.1 634.576L1018.33 635.632L1018.14 636.592L1017.85 637.84L1017.28 638.992V639.952L1016.89 641.104L1016.7 642.256V643.504L1016.6 644.656L1016.32 645.808V646.96L1016.12 649.264L1016.51 650.416L1016.32 651.568L1016.6 652.72V653.872L1016.8 655.024L1017.18 656.176L1017.56 657.232V658.384L1018.04 659.44L1018.52 660.688L1018.91 661.648L1019.58 662.8L1019.87 663.76L1020.54 664.816L1020.92 665.68L1021.69 666.64L1022.36 667.696L1023.23 668.56L1024 669.424L1024.86 670.192L1025.34 670.96L1026.3 671.632L1027.45 672.496L1028.32 673.168L1029.28 673.84L1030.14 674.32L1031.29 674.896L1032.06 675.376L1033.21 675.952L1034.08 676.336L1035.52 676.72L1036.38 677.2L1037.53 677.392L1038.59 677.776L1039.64 678.064L1040.99 678.16L1042.14 678.448H1043.29L1044.35 678.64L1045.6 678.736H1046.75H1048.86L1050.3 678.64L1051.26 678.736L1052.6 678.64L1053.76 678.352H1055L1056.16 678.064L1057.21 677.872L1058.36 677.776L1059.61 677.488L1060.76 677.104L1061.53 676.816L1062.68 676.624L1063.84 676.144L1064.99 675.76L1066.14 675.472L1067.39 674.992L1068.35 674.512L1069.12 674.032L1070.08 674.416L1070.27 675.472L1069.88 676.528L1069.98 677.584L1068.54 679.12L1067.87 679.504L1066.52 680.08L1065.56 680.368L1064.32 680.752L1063.36 681.04L1062.4 681.328L1061.24 681.616L1060 681.808L1058.65 682.096L1057.5 682.384L1056.35 682.48L1055.39 682.576L1053.18 682.864L1051.74 683.056L1049.53 683.248H1048.38H1045.98ZM1092.11 677.584L1093.07 677.68L1094.42 677.584L1095.28 677.68H1096.43L1097.49 677.584H1098.83L1100.08 677.68H1105.65L1106.99 677.584H1107.86L1108.91 677.68H1111.31L1112.66 677.584H1113.71L1114.77 677.68H1116.02L1117.07 677.584H1118.22L1119.47 677.68L1120.34 677.584H1126.19L1127.25 677.68L1128.5 677.584L1129.74 677.68L1130.61 677.584L1131.95 677.68L1132.91 677.584L1134.26 678.64L1134.16 679.792L1133.87 680.848L1132.72 682.096L1131.38 682L1130.32 682.096L1129.26 682L1127.92 682.096L1126.96 682L1125.71 682.096H1123.22L1122.16 682L1121.2 682.096L1119.76 682H1118.9L1117.65 682.096L1116.4 682L1115.25 682.096H1113.9L1113.04 682H1108.43L1107.28 682.096H1099.12L1097.68 682L1096.53 682.096H1094.22L1093.36 682L1092.02 682.096H1090.96L1089.71 682H1087.22L1086.26 680.848L1086.35 679.696L1086.16 678.544L1086.35 677.392L1086.26 676.336L1086.06 675.184L1086.26 673.936L1086.06 672.784L1086.35 671.536V670.48L1086.06 669.328V668.08L1086.35 667.024V665.776L1086.16 664.72L1086.26 663.568V662.32L1086.16 661.264L1086.35 660.016L1086.16 658.864L1086.06 657.808L1086.35 656.56V655.312L1086.26 654.16L1086.06 653.104V649.552L1086.26 648.496L1086.06 647.248L1086.26 646.096L1086.06 644.944L1086.35 643.888L1086.26 642.736L1086.06 641.584L1086.35 640.336L1086.26 639.088L1086.35 638.032V636.784L1086.26 635.728L1086.35 634.48L1086.06 633.328L1086.35 632.272L1086.06 631.024V629.968L1086.35 628.72L1086.06 627.664V625.264L1086.16 624.208V622.864L1086.06 621.712V620.56L1086.35 619.504V617.2L1086.06 615.952L1087.22 614.896H1088.46L1089.81 614.8L1090.77 614.896H1092.11L1093.26 614.8L1094.22 614.896L1095.38 614.8L1096.43 614.896L1097.78 614.8L1098.93 614.896H1102.38L1103.63 614.8L1104.59 614.896L1105.74 614.8L1106.99 614.896L1108.05 614.8L1109.1 614.896L1110.45 614.8L1111.31 614.896L1112.66 614.8L1113.62 614.896H1118.42L1119.47 614.8L1120.82 614.896H1121.87L1123.12 614.8L1124.27 614.896H1125.33L1126.29 614.8L1127.54 614.896H1132.14L1133.3 615.856L1133.2 617.104L1133.1 618.16L1131.47 619.312L1130.61 619.216L1129.46 619.312H1128.02L1126.77 619.216L1125.71 619.312H1121.1L1119.76 619.216L1118.61 619.312L1117.74 619.216H1111.79L1110.45 619.312L1109.58 619.216H1106.99L1106.03 619.312H1103.82L1102.38 619.216H1101.33L1100.27 619.312H1097.87L1096.82 619.216H1095.38L1094.42 619.312L1093.17 619.216L1091.82 619.312L1090.77 620.464L1090.96 621.52V622.864L1090.86 624.016L1090.96 625.072L1090.77 626.32L1090.86 627.568L1090.77 628.72L1090.86 629.776L1090.77 631.024L1090.86 632.176V633.424L1090.67 634.48L1090.96 635.632L1090.77 636.88L1090.96 638.128L1090.86 639.28L1090.67 640.336L1090.86 641.488L1090.67 642.832V643.888L1091.92 645.04L1093.26 645.136L1094.32 645.04L1095.57 645.136H1096.62L1097.68 645.04H1102.29L1103.63 645.136L1104.78 645.04H1111.6L1113.04 645.136H1113.9L1115.06 645.04H1116.3L1117.55 645.136H1118.61L1119.66 645.04H1125.71L1126.77 645.136H1129.17L1130.32 646.192V647.344L1130.13 648.304L1129.26 649.456H1128.11L1126.67 649.552H1125.52L1124.66 649.456L1123.12 649.552H1120.91L1119.76 649.456L1118.61 649.552L1117.36 649.456H1116.21L1115.06 649.552L1114.1 649.456L1112.75 649.552L1111.6 649.456L1110.54 649.552L1109.39 649.456L1108.34 649.552L1106.99 649.456L1106.03 649.552H1103.63L1102.48 649.456L1101.14 649.552L1100.27 649.456L1099.12 649.552L1097.87 649.456H1094.32L1093.17 649.552H1092.02L1090.77 650.608L1090.86 651.856L1090.96 653.008L1090.77 654.256L1090.86 655.312L1090.77 656.56L1090.86 657.712V661.264L1090.96 662.32L1090.77 663.472V664.816L1090.67 665.872L1090.77 667.024L1090.86 668.272L1090.77 669.424L1090.67 670.672V672.88L1090.86 674.128V676.528L1092.11 677.584Z" fill="black"/>
<circle cx="738" cy="545" r="419.5" stroke="#8D6E63"/>
</g>
<defs>
<clipPath id="clip0_1_138">
<rect width="1440" height="1024" fill="white"/>
</clipPath>
<clipPath id="clip1_1_138">
<rect width="1588" height="929" fill="white" transform="translate(-252 131)"/>
</clipPath>
</defs>
</svg>
