<svg width="1440" height="1024" viewBox="0 0 1440 1024" fill="none"
    xmlns="http://www.w3.org/2000/svg">
    <mask id="mask0_1_138" style="mask-type:alpha" maskUnits="userSpaceOnUse" x="259" y="71" width="840" height="840">
        <path d="M1099 491C1099 722.96 910.96 911 679 911C447.04 911 259 722.96 259 491C259 259.04 447.04 71 679 71C910.96 71 1099 259.04 1099 491Z" fill="#D9D9D9"/>
    </mask>
    <g mask="url(#mask0_1_138)">
        <circle cx="680" cy="491" r="420" fill="#8D6E63"/>
        <g clip-path="url(#clip0_1_138)">
            <path d="M376.934 140.433L371.227 150.014L370.359 143.917L369.49 137.966L365.892 143.772C363.907 146.966 362.046 149.578 361.798 149.578C361.674 149.578 361.922 146.966 362.419 143.772C362.915 140.579 362.791 137.966 362.295 137.966C361.674 137.966 361.178 138.401 361.178 138.982C361.178 139.708 359.441 142.466 357.456 145.224C355.347 147.982 353.982 149.288 354.231 148.127C354.479 146.966 355.099 143.046 355.471 139.417L356.216 132.885L352.99 139.417C348.896 147.691 348.276 148.417 349.02 143.337C349.888 137.966 348.772 138.401 344.43 145.659L340.708 151.756L340.087 145.949L339.467 140.143L336.738 144.498L334.008 148.853L333.884 144.643V140.288L329.542 145.224L325.2 150.159V143.627V137.24L321.354 144.788C319.245 148.998 317.136 152.481 316.64 152.481C316.143 152.481 314.779 150.014 313.538 147.111L311.305 141.595L309.072 146.675L306.839 151.61L305.97 146.966C304.73 140.288 302.869 139.853 302.869 146.24C302.869 154.949 302 155.53 293.564 153.207C283.639 150.449 283.391 150.449 286.741 154.659C290.214 159.013 289.842 159.159 281.778 155.385C273.838 151.756 273.466 151.756 276.319 155.675C278.428 158.433 278.428 158.723 276.567 157.852C275.327 157.417 271.605 156.546 268.255 155.965L262.176 155.094L263.169 160.32C264.037 165.255 263.045 167.432 261.308 164.094C260.936 163.368 259.447 161.917 257.958 161.046C255.601 159.594 255.477 159.739 256.345 164.094L257.214 168.739L250.886 168.303C244.311 167.723 243.319 168.303 246.42 171.352C247.413 172.368 248.281 173.674 248.281 174.255C248.281 174.69 243.567 176.432 237.736 177.884C226.818 180.787 224.213 182.819 231.285 183.109L235.255 183.255L231.533 184.416C229.548 184.996 225.95 185.577 223.717 185.722C221.36 185.867 217.266 187.754 213.916 190.367C208.333 195.012 208.333 195.012 196.547 193.996C190.096 193.415 182.28 191.964 179.054 190.803C175.829 189.787 166.524 187.754 158.336 186.593C150.148 185.432 141.836 184.125 139.726 183.69C136.501 183.109 136.873 183.545 141.96 186.738C145.185 188.625 147.791 190.512 147.791 190.658C147.791 190.948 144.069 190.658 139.478 190.077C134.764 189.496 125.459 188.335 118.512 187.464C109.703 186.303 101.887 184.271 91.9624 180.206C84.1465 177.013 77.5712 174.69 77.3231 174.981C77.0749 175.271 79.0599 176.868 81.9134 178.61C84.7668 180.206 86.9999 181.803 86.9999 182.093C86.9999 182.384 81.2931 181.077 74.3456 179.19C64.0484 176.432 57.9693 175.706 43.5781 175.852C27.8221 175.852 25.9612 175.997 28.5665 177.739C31.2959 179.48 30.0553 179.916 15.5399 180.787C6.73151 181.513 -14.3591 181.368 -31.4797 180.497C-62.2472 179.19 -62.7435 179.19 -82.3454 183.109C-95.7441 185.722 -100.334 187.029 -96.6125 187.174C-86.5635 187.609 -94.0072 189.787 -111.872 191.674C-121.301 192.69 -129.241 193.996 -129.489 194.722C-129.861 195.303 -127.132 196.319 -123.658 196.899L-117.083 198.06L-123.286 199.077C-126.636 199.657 -132.715 200.238 -136.561 200.238C-144.501 200.383 -146.113 202.27 -139.662 204.012C-135.072 205.173 -133.955 204.447 -150.083 210.254C-154.55 211.995 -171.05 219.834 -186.682 227.963L-215.092 242.623L-227.747 257.284C-240.153 271.8 -240.525 272.38 -248.093 291.686C-252.187 302.573 -257.273 315.056 -259.383 319.411C-261.368 323.766 -267.323 338.862 -272.781 352.797C-278.116 366.732 -285.808 386.618 -289.902 397.07L-297.222 415.94L-298.338 467.47C-298.958 495.776 -299.331 543.242 -299.083 572.709L-298.71 626.562L-304.417 650.367L-310 674.173L-306.278 707.704C-302.184 743.848 -300.943 750.67 -301.936 732.381C-303.921 692.608 -303.921 679.979 -302.06 670.689L-300.075 661.254L-300.695 675.044C-301.068 684.044 -300.323 697.979 -298.586 714.962C-295.609 743.558 -295.361 753.719 -296.601 776.653L-297.346 791.895L-295.733 778.105C-294.74 770.557 -293.252 761.702 -292.259 758.509C-290.894 754.009 -290.77 747.767 -291.267 731.365C-291.639 719.607 -291.639 710.462 -291.267 711.043C-290.77 711.623 -288.289 720.042 -285.808 729.913L-281.218 747.767L-284.939 757.493C-288.537 767.073 -288.537 767.363 -287.669 784.637C-287.173 794.217 -286.8 801.33 -286.676 800.604C-286.552 799.733 -285.808 793.201 -285.188 786.088C-284.319 777.96 -282.21 767.799 -279.481 759.089L-275.014 745.009L-279.357 718.446C-281.714 703.785 -283.575 691.592 -283.327 691.301C-283.203 691.156 -280.969 695.946 -278.364 702.188C-274.022 712.639 -273.526 715.397 -271.541 736.735L-269.308 759.96V730.929L-269.183 701.898L-277.62 678.818L-286.056 655.738L-283.699 642.529C-277.123 605.659 -275.263 582.144 -275.263 534.968C-275.138 510.146 -274.642 481.115 -274.022 470.374C-273.029 450.778 -266.702 405.634 -263.849 396.199C-262.112 390.828 -238.912 339.733 -238.416 340.314C-238.044 340.604 -249.458 414.779 -251.691 426.101C-252.435 430.165 -252.807 440.326 -252.683 448.6L-252.311 463.842L-249.83 458.761L-247.348 453.681L-246.728 474.003C-246.108 493.599 -245.612 495.05 -243.503 482.712C-242.634 478.212 -242.262 481.405 -241.766 497.228L-241.021 517.549L-235.066 531.775C-231.841 539.613 -228.863 545.71 -228.491 545.419C-228.243 544.984 -229.235 538.162 -230.724 530.033C-233.329 516.388 -233.453 515.082 -231.593 510.727L-229.608 505.937L-227.498 511.598C-225.762 516.388 -225.513 522.049 -225.886 550.935C-226.134 569.66 -226.01 584.466 -225.638 584.176C-224.769 583.015 -218.318 545.71 -218.07 540.049C-217.946 537 -217.449 539.033 -216.829 545.129C-215.713 556.016 -216.705 565.886 -222.66 602.176C-225.638 620.901 -225.886 635.561 -223.156 641.368C-222.784 642.384 -220.427 633.239 -218.194 621.046C-214.1 599.127 -211.122 588.531 -212.487 600.288C-212.859 603.482 -214.1 624.094 -215.216 646.013L-217.449 685.931L-207.773 733.832C-202.562 760.251 -197.723 783.621 -197.103 786.088L-196.111 790.443L-195.987 786.088C-195.863 783.621 -195.366 780.863 -194.746 779.702C-194.126 778.54 -193.381 783.33 -192.885 792.04C-192.389 800.023 -191.768 811.926 -191.272 818.749L-190.528 831.087L-188.915 824.555C-186.682 814.975 -186.93 819.62 -189.659 844.877C-192.761 872.747 -192.637 877.537 -189.411 865.344C-188.171 860.408 -186.806 856.489 -186.558 856.78C-186.186 857.07 -187.054 865.489 -188.419 875.36C-191.272 896.407 -191.272 897.133 -189.535 894.23C-188.171 891.907 -188.171 891.907 -190.776 904.391C-192.637 913.245 -195.863 945.47 -194.994 946.486C-194.622 946.922 -194.002 946.341 -193.753 945.47C-193.381 944.454 -192.141 942.131 -190.9 940.39L-188.543 937.051L-188.419 943.873V950.55L-178.246 951.567C-172.539 952.147 -163.482 952.438 -158.023 952.147C-152.565 952.002 -121.921 952.002 -89.7891 952.147C-36.3182 952.583 -16.2201 951.567 -13.7388 948.663C-12.2501 946.922 -12.6223 932.841 -14.3591 927.906C-16.2201 922.681 -16.2201 922.681 -11.7538 924.713C-7.16348 926.745 -7.78381 925.148 -13.7388 918.761C-18.8253 913.536 -18.5772 911.358 -13.3666 914.552C-12.126 915.423 -11.0094 915.858 -11.0094 915.423C-11.0094 915.132 -13.2426 909.036 -16.096 901.923C-29.1226 868.682 -34.7054 849.667 -38.4272 824.7C-40.4122 811.491 -42.2732 797.991 -42.6454 794.798L-43.2657 788.992L-41.2807 795.959C-40.1641 799.878 -39.0475 802.781 -38.7994 802.346C-38.4272 801.91 -38.7994 785.508 -39.5438 765.767C-40.4122 746.17 -40.7844 729.768 -40.4122 729.332C-40.1641 728.897 -38.7994 733.397 -37.5588 739.203L-35.2016 749.799L-34.5813 725.849C-33.8369 699.14 -34.0851 699.285 -27.2616 721.204C-25.6488 726.139 -24.16 730.058 -24.036 729.913C-23.7879 729.623 -20.9344 724.833 -17.7088 719.171C-14.3591 713.51 -11.0094 709.01 -10.3891 709.01C-9.64474 709.01 -8.03192 713.365 -6.54318 718.591L-3.93787 728.026L-2.20099 720.913C-0.464111 713.946 -0.216003 713.655 5.73901 711.768C14.5475 709.156 15.1678 709.301 13.8031 713.365C12.1902 718.3 6.48337 743.267 6.97964 743.267C7.1037 743.267 9.70901 738.913 12.6865 733.542C18.0212 723.816 29.4349 708.43 31.1718 708.43C31.6681 708.43 33.4049 711.768 34.8937 715.978C36.8787 721.494 37.499 725.268 37.1268 730.494L36.5065 737.606L40.1043 733.542C43.7021 729.478 44.0743 726.865 41.7171 719.752C41.0968 717.865 42.5856 716.268 48.5406 712.785L56.2324 708.14L55.7362 712.785C55.2399 716.994 55.6121 717.575 62.5596 722.365C66.6537 725.123 70.2515 727.155 70.4996 726.72C70.7477 726.429 70.1274 724.107 69.1349 721.639L67.1499 717.284L72.8568 713.365L78.4396 709.446L82.1615 714.817C84.2706 717.72 86.5037 720.042 87.124 720.042C87.7443 720.042 89.3571 717.284 90.8459 713.946L93.5753 707.849L96.8009 715.397L100.151 723.091L106.106 713.51C109.455 708.14 112.557 704.365 113.053 705.091C113.549 705.672 115.41 708.72 117.023 711.768L120.249 717.284L122.978 712.204C124.467 709.301 126.08 706.978 126.452 706.978C126.948 706.978 128.437 709.156 129.677 711.768L132.035 716.413L133.771 711.333C137.741 699.72 136.997 700.011 141.587 707.414C143.821 711.188 146.054 714.236 146.55 714.236C146.922 714.236 148.535 711.333 150.024 707.704L152.753 701.172H166.896H181.039L182.528 696.092C184.513 689.124 185.63 688.689 190.592 693.188C195.679 697.688 196.795 697.253 197.912 690.285C198.408 687.527 199.401 684.915 200.145 684.334C201.013 683.608 201.261 684.624 200.889 687.237C200.021 692.608 201.51 692.027 206.472 684.915C210.69 678.963 210.938 678.818 213.296 681.286C216.521 684.624 216.645 684.479 218.382 677.947C220.119 671.27 220.987 670.544 233.766 666.48C245.428 662.851 244.559 662.851 244.559 666.48C244.559 669.963 247.041 668.802 247.041 665.173C247.165 663.867 247.909 660.819 248.777 658.351L250.266 653.996L253.74 662.706C255.601 667.496 257.71 675.044 258.578 679.399C259.571 685.931 261.804 690.285 269.744 702.624L279.545 717.865L278.676 741.09C278.18 753.864 277.188 765.621 276.567 767.073C275.699 768.96 275.575 779.556 275.947 796.83C276.816 824.555 277.684 834.861 279.297 831.958C279.669 831.087 281.654 841.248 283.515 854.602L286.865 878.988L283.763 901.778C282.026 914.407 280.413 925.148 280.165 925.729C279.421 927.18 282.895 946.922 284.135 948.373C285.004 949.389 312.297 950.26 331.403 949.97C335.125 949.97 344.926 949.825 353.114 949.68C373.336 949.389 392.318 948.228 393.186 947.212C393.558 946.776 394.179 942.567 394.427 937.777C394.923 929.793 395.171 929.213 397.28 930.664C398.645 931.39 399.637 931.825 399.637 931.39C399.637 931.1 396.288 923.116 392.194 913.681C388.1 904.246 384.998 895.536 385.37 894.23C385.742 892.923 388.72 888.714 392.07 884.795L398.149 877.537L399.017 791.169L399.885 704.801L395.419 658.786C391.821 621.046 391.201 610.014 391.821 596.805C392.566 580.257 393.93 577.354 395.419 588.676C396.288 595.934 398.273 596.079 398.521 588.966L398.645 584.321L399.637 589.257C400.134 591.869 402.119 595.789 403.98 597.966L407.205 601.74L406.461 597.676C405.468 593.031 408.074 574.886 409.686 574.886C410.307 574.886 410.803 577.063 410.927 579.531C410.927 584.031 411.051 583.886 413.656 576.773C415.145 572.564 416.634 569.08 417.006 569.08C417.378 569.08 420.356 572.128 423.581 575.612C426.807 579.241 429.661 582.144 429.909 582.144C430.157 582.144 429.785 578.805 429.04 574.741C428.172 569.37 428.296 565.886 429.412 561.387C430.777 556.161 431.149 555.725 432.018 558.193C432.514 559.79 433.01 562.983 433.134 565.451C433.382 569.66 433.382 569.66 434.995 563.999C435.864 560.661 436.98 552.677 437.476 546.29C438.097 537 438.717 534.678 440.082 535.258C441.322 535.694 441.819 538.597 441.943 544.258C442.067 552.387 442.067 552.387 443.804 548.032C445.044 544.839 445.416 539.903 444.92 528.436C444.3 514.356 444.424 513.485 446.037 517.549L447.774 521.904L447.898 516.098C448.146 507.534 449.635 505.647 451.992 511.453C453.853 515.953 455.217 516.678 474.819 524.517L495.786 532.791H511.914H528.042L537.223 525.678C546.155 518.711 546.651 518.565 558.313 517.549C564.889 516.969 571.092 516.388 572.084 515.953C573.201 515.662 579.156 518.856 585.359 523.21C596.276 530.759 596.649 530.904 599.874 528.581C602.48 526.694 603.1 525.243 603.1 520.307C603.1 509.856 598.882 498.244 592.555 491.857C587.716 486.921 586.351 483.438 589.205 483.438C589.701 483.438 594.167 487.357 599.254 492.002C607.814 499.986 611.164 501.873 643.048 516.388L677.661 532.065L694.658 555.58L711.655 579.241L714.508 591.869C715.997 598.982 719.594 614.949 722.324 627.433L727.286 650.222L726.418 680.415C725.55 714.091 726.542 708.43 709.049 777.815L702.35 804.523V831.813C702.35 862.15 703.59 872.602 710.538 901.488C718.974 936.18 717.858 934.003 727.783 936.18C732.125 937.196 734.11 936.615 742.05 932.116L751.354 926.745L753.712 915.858L756.193 904.826L751.727 898.439C742.918 885.811 739.32 876.811 736.591 860.844C734.234 847.054 734.11 844.006 735.35 829.635C736.095 820.781 736.839 814.684 736.963 815.846C737.211 819.62 739.196 815.265 744.531 798.427C750.486 779.556 751.851 775.928 751.975 779.847C751.975 784.347 753.836 782.75 759.543 773.315C767.731 760.251 773.065 748.638 774.182 741.525C774.678 738.042 775.795 735.429 776.539 735.574C777.284 735.864 778.648 733.252 779.393 729.768C781.005 723.526 782.99 719.462 782.99 722.655C782.99 723.671 783.611 724.397 784.231 724.397C784.975 724.397 785.472 720.333 785.472 714.962C785.472 707.269 785.844 705.817 787.333 706.398C788.821 707.123 789.194 706.107 789.318 701.753C789.318 695.366 791.303 682.882 791.551 687.237C791.799 692.753 793.04 688.253 794.9 674.899C795.893 667.496 797.382 660.819 798.25 660.238C798.995 659.657 799.863 654.722 800.111 649.061C800.359 643.4 801.104 639.19 801.724 639.626C802.344 640.061 802.84 634.255 802.84 626.562C802.84 614.078 803.957 609.288 805.694 614.369C806.066 615.385 806.438 612.336 806.438 607.546C806.562 601.014 806.934 599.418 807.927 601.014C808.795 602.611 808.919 599.708 808.299 590.998C807.803 582.725 807.927 578.515 808.919 577.934C809.912 577.209 809.788 574.886 808.423 569.66C805.818 559.5 805.942 558.483 810.036 559.354C811.897 559.79 829.018 559.209 848.123 557.903L882.861 555.725L919.707 543.532L956.554 531.339L989.927 503.469C1022.43 476.325 1023.55 475.309 1029.38 464.567C1032.73 458.616 1039.8 446.713 1045.13 438.004C1053.82 423.488 1055.43 419.569 1052.08 419.569C1051.46 419.569 1044.14 425.665 1035.71 433.214C1013.75 452.955 972.93 484.163 966.479 486.051C963.501 487.067 944.024 492.292 923.181 497.953C886.831 507.679 884.101 508.114 853.706 511.017C824.427 513.775 821.202 513.775 809.664 511.743C802.84 510.582 796.885 509.566 796.389 509.566C795.769 509.566 795.397 508.405 795.397 506.808C795.397 503.905 798.498 502.308 804.205 502.308C805.942 502.308 818.72 497.953 832.74 492.728C846.635 487.502 861.398 481.986 865.492 480.389C869.586 478.938 885.962 468.922 901.842 458.18L930.749 438.73L948.986 411.295C959.035 396.199 970.821 378.78 975.287 372.393C982.607 361.942 984.344 358.023 993.4 331.604C1001.84 307.363 1003.2 301.992 1001.71 301.267C1000.6 300.831 999.107 301.557 998.115 303.299C985.584 324.201 941.418 383.135 934.595 388.215C932.114 389.957 915.489 400.408 897.748 411.295C869.338 428.714 862.39 432.343 839.439 441.488C812.145 452.374 805.818 454.116 793.412 454.261L785.844 454.406L777.284 444.681C771.577 438.149 769.716 435.246 771.577 435.826C775.795 437.133 774.802 435.391 766.986 427.843C763.14 423.924 757.806 416.956 755.324 412.166C750.61 403.311 750.61 401.86 755.449 405.924C764.505 413.327 751.603 394.312 734.358 374.716C725.55 364.845 718.726 356.426 718.974 355.99C719.346 355.7 721.455 356.136 723.689 357.007C727.41 358.313 726.914 357.587 719.719 350.184C715.376 345.684 709.794 339.733 707.312 337.265L702.97 332.475L707.064 333.346C709.173 333.927 711.034 333.927 711.034 333.491C711.034 333.056 708.305 330.733 704.831 328.12C698.38 323.33 697.76 320.863 703.094 320.863C704.831 320.863 705.824 320.282 705.451 319.411C705.079 318.54 703.342 317.96 701.605 317.96C696.023 317.96 684.609 309.831 678.282 301.121L672.203 292.993L677.289 294.009C680.143 294.589 682.5 294.589 682.5 294.299C682.5 293.573 669.473 282.251 661.905 276.155C659.92 274.703 660.417 274.558 665.131 275.138L670.714 276.009L663.89 271.364C625.059 244.801 616.375 238.124 596.649 218.818C585.111 207.641 575.806 197.915 575.806 197.335C575.806 196.609 577.295 196.028 579.156 196.028C582.381 196.028 582.381 195.883 577.295 191.528C574.441 189.061 572.084 186.593 572.084 186.013C572.084 185.432 574.193 184.271 576.799 183.4L581.389 181.948L576.426 181.658C573.697 181.513 569.355 181.077 566.75 180.497L562.035 179.626L566.501 174.255L571.092 168.739L564.516 171.207C560.795 172.658 556.204 174.255 554.343 174.836L550.745 175.852L554.095 170.626C557.941 164.82 557.941 164.82 551.862 167.723C545.535 170.771 545.287 170.481 549.009 164.965C550.745 162.207 552.234 159.594 552.234 159.159C552.234 158.723 549.629 159.304 546.403 160.465C537.719 163.513 537.223 163.368 538.835 158.143C539.58 155.82 539.952 153.497 539.58 153.207C539.332 152.917 535.858 154.514 531.764 156.836C527.67 159.159 524.196 160.755 523.948 160.465C523.7 160.32 524.444 157.562 525.561 154.659C526.553 151.61 527.298 148.853 527.05 148.707C526.801 148.417 522.211 149.723 516.752 151.756C511.418 153.788 506.827 155.385 506.579 155.385C506.331 155.385 507.324 153.352 508.812 151.03C512.41 145.078 511.045 145.514 503.974 152.481C500.748 155.675 497.771 158.288 497.275 158.288C496.902 158.288 497.275 156.11 498.143 153.497C502.361 141.45 502.237 141.159 495.662 147.401C491.444 151.465 489.955 152.336 490.699 150.304C491.195 148.707 491.94 145.369 492.312 143.046C493.056 138.692 493.056 138.837 485.489 146.385L477.797 154.223V149.288L477.673 144.498L473.951 149.578C471.346 153.207 470.353 153.788 470.849 151.756C472.214 145.369 473.082 137.966 472.462 137.966C472.09 137.966 469.981 141.595 467.872 145.949C465.763 150.304 463.654 153.933 463.281 153.933C463.033 153.933 463.033 151.175 463.53 147.691L464.274 141.595L460.428 146.675C456.21 152.336 455.714 150.885 458.567 140.143C459.56 136.224 460.18 132.74 459.932 132.45C459.684 132.16 457.575 134.918 455.341 138.692C450.999 145.659 449.262 145.369 449.262 137.53C449.262 132.014 447.153 133.901 445.416 140.869C443.68 147.401 442.563 147.256 441.198 140.579C440.206 135.934 440.082 135.934 439.461 143.046L438.717 150.304L434.623 143.337C432.266 139.417 430.033 136.659 429.661 137.095C429.288 137.675 428.544 140.724 428.172 144.208L427.427 150.304L425.318 144.643L423.209 138.982L418.743 143.917C415.393 147.546 414.525 147.982 415.641 145.514C417.378 141.74 416.262 141.304 413.036 144.788C410.803 147.111 410.803 146.966 412.54 141.159C413.532 137.821 414.153 135.063 413.656 135.063C413.284 135.063 410.431 137.53 407.205 140.579C398.521 148.998 397.901 148.998 401.498 140.869C403.235 136.659 404.6 133.176 404.352 132.885C404.104 132.595 399.761 136.369 394.799 141.304L385.618 150.159L386.487 142.901L387.479 135.788L382.765 140.869C378.05 146.095 378.05 145.804 381.524 136.079C382.641 133.176 383.385 130.708 383.137 130.708C382.889 130.708 380.16 135.063 376.934 140.433Z" fill="white"/>
        </g>
        <path d="M285.41 626.944V625.792L285.602 624.544L285.506 623.488L285.41 622.336L285.314 621.088L285.506 619.936L285.314 618.688L285.41 617.536V616.384L285.602 615.328L285.506 614.08L285.602 612.928L285.41 611.872L285.602 610.72V609.568L285.506 608.32L285.41 607.264V606.016L285.602 604.864V603.808L285.41 602.464L285.314 601.312L285.506 600.16L285.41 599.008L285.506 597.952V594.4L285.314 593.248V590.944L285.41 589.792L285.314 588.64L285.506 587.488L285.602 586.432V585.184L285.41 583.936L285.506 582.784V579.424L285.41 578.176L285.506 577.024L285.602 575.968L285.41 574.72L285.602 573.568V572.416L285.41 571.36L285.506 570.112L285.41 568.96L285.602 567.712V566.656L285.314 565.408V564.352L285.602 563.2L285.41 561.952L286.466 560.8H289.058L289.922 560.896H291.17L292.13 560.8H293.474L294.626 560.896H295.874L296.93 560.8L298.178 560.896L299.33 560.8L300.29 560.896L301.538 560.8L302.594 560.896H303.842L304.898 560.8L306.146 560.896H307.01L308.162 560.8L309.314 560.896L310.466 560.8L311.81 560.896H312.866L314.018 560.8H316.226L317.474 560.896L318.53 561.088L319.778 561.184L320.738 561.28L321.986 561.568L323.138 561.856L324.194 562.144L325.25 562.72L326.114 563.008L327.266 563.584L328.322 564.256L329.378 564.736L330.146 565.504L331.01 566.272L332.45 567.904L333.314 568.768L333.89 569.824L334.274 570.784L334.85 571.84L335.33 572.896L335.522 573.952L335.81 575.104L336.002 576.064L336.194 577.312L336.578 578.368V579.424L336.482 581.824V582.88L336.29 584.032V585.088L335.906 586.24L335.522 587.392L335.33 588.544L334.658 589.6L334.178 590.56L333.794 591.616L332.93 592.48L332.45 593.344L331.778 594.304L330.818 594.976L330.05 595.744L328.994 596.416L328.226 597.088L326.978 597.664L326.114 598.24L325.058 598.624L324.098 599.104L322.85 599.392L320.738 599.968L319.586 600.256H318.146L316.994 600.352L316.13 600.448L313.826 600.544H310.274L309.218 600.448L307.97 600.544L307.01 600.448L305.954 600.544H303.554L302.306 600.448H298.85L297.794 600.544H296.834L295.586 600.448H290.978L290.018 601.696L289.922 602.848L289.826 603.904L289.922 605.152L289.826 606.304V607.36L290.018 608.512L289.922 609.76L290.114 612.064L289.826 613.12L290.018 614.272L290.114 615.424V617.728L289.922 618.784L289.826 619.936L290.114 621.184L290.018 622.24V623.488L290.114 624.544L290.018 625.792L289.826 626.944L288.77 628L287.81 628.096L286.562 628L285.41 626.944ZM291.266 596.032H292.13L293.474 596.128H294.53L295.778 596.032L296.642 596.128L297.89 596.032H298.946L300.194 596.128H301.442L302.498 596.032L303.458 596.128L304.61 596.032L305.858 596.128L307.01 596.032L308.066 596.128L309.506 596.032L310.562 596.128H313.826L316.13 596.032H317.186L318.242 595.84L319.49 595.744L320.642 595.456L321.794 595.264L322.754 594.88L323.906 594.4L324.77 594.016L326.018 593.44L326.69 592.768L327.554 592L328.61 591.232L329.378 590.368L329.762 589.408L330.53 588.448L330.818 587.392L331.01 586.432L331.586 585.184V584.128L331.682 582.976L331.778 581.92L331.97 579.616V578.56L331.682 577.408L331.298 576.256L331.106 575.2L330.914 574.144L330.146 573.088L329.666 572.032L328.994 571.168L328.61 570.112L327.65 569.344L326.69 568.672L325.826 567.904L325.058 567.328L323.81 566.944L322.754 566.56L321.506 566.176L320.354 565.792L319.202 565.696L316.994 565.312L315.65 565.216L313.346 565.312H312.386L311.138 565.216H308.738L307.49 565.312L306.242 565.216H304.034L302.882 565.312H300.482L299.234 565.216H295.682L294.722 565.312L293.57 565.216H292.13L291.074 565.312L290.018 566.464V567.52L290.114 568.672L289.922 569.92L290.114 570.88V572.032L290.018 573.28L289.922 574.432L289.826 575.488L290.114 576.736L289.922 577.888L290.018 579.04L289.922 580.096L289.826 581.248V582.4L290.114 583.456L289.826 584.704V587.008L290.018 588.16L289.922 589.216L289.826 590.368L289.922 591.52L290.018 592.576L289.826 593.824V594.976L291.266 596.032ZM393.899 626.944L393.419 625.888L392.747 624.832L392.555 623.872L391.787 622.72L391.307 621.664L391.211 620.608L390.731 619.648L389.963 618.688L389.771 617.536L389.195 616.48L388.715 615.52L388.139 614.464L387.755 613.312L387.467 612.352L386.795 611.296L385.451 610.24L384.011 610.144L382.859 610.24H381.995L380.747 610.144L379.691 610.24L378.251 610.144L377.099 610.24L375.947 610.144H375.083L373.931 610.24H371.339L370.187 610.144L369.035 610.24L368.171 610.144H366.923L365.579 610.24H364.331L363.371 610.144H355.307L353.963 610.24H352.811L351.947 610.144H349.547L347.915 611.296L347.243 612.256L347.147 613.312L346.379 614.368L346.091 615.424L345.515 616.48L345.131 617.536L344.555 618.688L344.363 619.552L343.787 620.704L343.211 621.76L343.019 622.72L342.347 623.776L342.059 624.928L341.579 625.888L340.907 627.04L339.371 628H337.931L336.875 628.096L336.011 626.944L336.395 625.888L336.779 624.832L337.547 623.872L337.931 622.816L338.219 621.664L338.699 620.608L339.083 619.552L339.851 618.592L340.331 617.536L340.619 616.48L341.099 615.424L341.483 614.464L341.963 613.312L342.635 612.256L343.019 611.2L343.307 610.24L343.979 609.184L344.267 608.128L344.939 607.072L345.227 605.92L345.515 604.864L346.091 603.904L346.571 602.752L347.147 601.888L347.339 600.832L347.819 599.68L348.587 598.624L348.971 597.568L349.451 596.608L349.643 595.552L350.411 594.496L350.891 593.44L351.179 592.288L351.659 591.328L352.043 590.272L352.619 589.216L353.099 588.064L353.579 587.008L353.771 585.952L354.443 584.992L354.827 583.936L355.403 582.976L355.595 581.824L356.075 580.864L356.651 579.712L357.323 578.656L357.803 577.696L357.899 576.544L358.667 575.488L359.051 574.528L359.627 573.376L359.723 572.32L360.299 571.264L360.683 570.304L361.451 569.248L361.739 568.288L362.027 567.232L362.795 566.176L362.987 565.024L363.659 564.064L363.851 562.912L364.619 561.952L366.059 560.896H367.595L368.555 560.8L370.283 561.856L370.667 563.008L371.339 564.064L371.723 565.12L372.299 566.176L372.683 567.136L373.067 568.288L373.355 569.248L373.931 570.208L374.315 571.264L374.987 572.416L375.179 573.376L375.947 574.432L376.427 575.584L376.619 576.64L377.195 577.6L377.579 578.752L377.963 579.712L378.539 580.864L378.923 581.824L379.595 582.88L379.787 583.936L380.555 584.992L381.323 587.008L381.803 588.064L382.283 589.216L382.571 590.176L383.243 591.232L383.531 592.384L383.915 593.44L384.587 594.4L385.067 595.552L385.355 596.512L385.931 597.664L386.411 598.624L386.891 599.68L387.563 601.792L388.139 602.752L388.619 603.904L389.771 606.016L389.867 607.072L390.539 608.128L391.115 609.088L391.595 610.144L391.787 611.2L392.267 612.352L392.939 613.312L393.131 614.464L393.803 615.424L394.283 616.48L394.667 617.536L395.147 618.592L395.435 619.552L396.011 620.704L396.299 621.664L397.259 623.776L397.739 624.928L398.411 625.984L398.795 627.04L397.931 628L396.587 628.096H395.339L393.899 626.944ZM351.467 605.728L352.715 605.824H354.731L356.171 605.728H357.131L358.091 605.824L359.339 605.728H360.491L361.643 605.824L362.795 605.728L363.947 605.824L365.003 605.728L366.347 605.824H367.499L368.363 605.728H369.707L370.667 605.824L371.915 605.728H374.219L375.275 605.824H376.427L377.771 605.728L379.019 605.824L379.787 605.728L380.939 605.824L382.187 605.728L383.339 605.824L384.203 604.672L383.531 603.616L383.147 602.656L382.667 601.504L382.091 600.448L381.803 599.392L381.227 598.432L380.747 597.376L380.459 596.224L379.307 594.112L378.923 593.056L378.443 592L378.251 590.944L377.579 589.984L377.195 588.928L376.523 587.776L376.043 586.816L375.947 585.664L375.467 584.704L374.891 583.552L373.547 580.384L373.163 579.328L372.395 578.368L371.915 577.216L371.723 576.16L371.147 575.104L370.571 574.048L370.091 572.992L369.707 572.032L369.419 570.976L368.651 569.92L368.555 568.768L368.075 567.808L367.115 567.712L366.635 568.768L366.059 569.92L365.579 570.976L365.291 571.936L364.715 573.088L364.331 574.048L363.851 575.2L363.275 576.16L362.891 577.312L361.739 579.424L361.547 580.384L360.971 581.536L360.491 582.592L360.011 583.648L359.723 584.608L359.243 585.664L358.667 586.816L358.283 587.776L357.803 588.928L357.323 589.888L356.843 591.04L356.171 592L355.979 593.152L355.499 594.208L355.019 595.168L354.635 596.32L354.155 597.376L353.483 598.336L353.195 599.392L352.427 600.544L352.235 601.6L351.659 602.656L351.371 603.712L350.891 604.768L351.467 605.728ZM415.952 623.68H417.296L418.448 623.584L419.504 623.68H427.28L428.624 623.584L429.68 623.68H432.08L433.328 623.584H436.784L437.84 623.68H439.952L441.392 623.584H442.448L443.6 623.68H452.624L453.776 623.584L454.736 624.64L454.832 625.792V626.944L453.392 628.096H447.632L446.768 628H444.368L443.12 628.096H440.912L439.856 628H438.512L437.456 628.096L436.496 628H435.344L434 628.096L432.944 628L431.696 628.096H429.488L428.624 628L427.472 628.096H424.976L423.92 628L422.672 628.096H421.424L420.368 628L419.216 628.096L418.352 628H417.008L415.856 628.096L414.704 628L413.648 628.096L412.688 628H411.248L410.384 626.848V625.696L410.288 624.544L410.096 623.392V622.24L410.288 621.184L410.096 619.936L410.384 618.688L410.096 617.536V616.384L410.384 615.232L410.288 614.08V612.928L410.384 611.872L410.096 610.72V609.472L410.192 608.32V604.864L410.096 603.808L410.288 602.56L410.384 601.312V600.256L410.096 599.104L410.384 597.856L410.096 596.704L410.288 595.648V594.496L410.096 593.248V591.04L410.192 589.888V588.736L410.384 587.584L410.096 586.336L410.384 585.088L410.192 583.936L410.096 582.784L410.384 581.728L410.096 580.576L410.384 579.424L410.288 578.272L410.192 577.024V575.872L410.288 574.816L410.192 573.664V572.512L410.288 571.36V570.208L410.096 568.96L410.192 567.712V565.408L410.288 564.352L410.384 563.104L410.096 562.048L411.344 560.896L412.4 560.8H413.648L414.8 561.952L414.704 563.2L414.992 564.352L414.704 565.408L414.896 566.56L414.992 567.616L414.896 568.864L414.704 570.016L414.8 571.072L414.896 572.32L414.8 573.472V574.528L414.896 575.68V576.832L414.8 577.888L414.896 579.136L414.8 580.192L414.896 581.344L414.8 582.496L414.992 583.648L414.8 584.896V587.008L414.704 588.256L414.992 589.312V592.768L414.704 593.92L414.896 595.072L414.992 596.32L414.8 597.376L414.992 598.432L414.896 599.68L414.704 600.736L414.896 601.984L414.992 603.136L414.896 604.192L414.704 605.44L414.896 606.496L414.8 607.648V608.8L414.896 609.952V612.256L414.8 613.312L414.896 614.56L414.704 616.864L414.992 618.016V620.128L414.8 621.376L414.896 622.432L415.952 623.68ZM506.938 541.312L506.266 542.176L505.402 542.944L504.442 543.712L503.578 544.576L502.714 545.248L502.042 546.016L500.986 546.784L500.026 547.648L499.354 548.416L498.394 549.28L497.434 549.952L496.858 550.816L495.994 551.488L495.226 552.352L494.17 553.216L493.402 553.888L491.29 554.752L490.33 554.656H488.986L488.41 553.888L489.37 553.12L490.33 552.16L490.81 551.392L491.578 550.528L492.346 549.76L493.114 548.8L494.17 548.032L494.938 547.264L495.61 546.496L496.474 545.536L497.05 544.672L498.106 543.904L498.682 543.136L499.738 542.176L500.218 541.504L502.33 540.64H504.346L505.786 540.544H506.746L506.938 541.312ZM472.762 623.584H478.618L479.674 623.68H483.034L484.378 623.584H491.29L492.346 623.68L493.498 623.584L494.458 623.68L495.61 623.584L496.858 623.68H498.202L499.162 623.584L500.314 623.68L501.562 623.584L502.522 623.68L503.77 623.584H506.074L507.034 623.68L508.282 623.584L509.53 623.68H512.89L514.138 623.584L514.906 624.736L515.098 625.792L515.002 626.848L513.466 628H512.314L511.354 628.096L510.298 628L508.954 628.096L507.898 628L506.458 628.096L505.402 628L504.346 628.096H499.642L498.586 628H496.282L495.13 628.096L493.786 628L492.538 628.096H490.426L489.178 628L488.218 628.096L486.778 628H481.114L479.77 628.096L478.81 628L477.754 628.096L476.602 628H474.106L472.858 628.096H471.802L470.458 628L469.402 628.096H468.346L467.002 626.848L467.098 625.792L467.29 624.64L467.098 623.392L467.194 622.24V621.088L467.098 619.936L467.194 618.784L467.29 617.536L467.002 616.48V615.232L467.098 614.176L467.002 613.024V611.872L467.194 610.72L467.29 609.568V608.416L467.194 607.264L467.098 606.016L467.29 604.96L467.098 602.56L467.194 601.408L467.098 600.256L467.194 599.104V597.952L467.29 596.8L467.002 595.552L467.29 594.496L467.002 593.344L467.098 592.192V590.944L467.002 589.792L467.194 588.736L467.002 587.488L467.098 586.336V585.184L467.194 583.936L467.098 582.88L467.194 581.632L467.002 580.576V577.12L467.29 575.872L467.098 574.72V573.568L467.29 572.416L467.002 571.264L467.098 570.208L467.29 567.808V566.56L467.002 565.408L467.194 563.104V561.952L468.442 560.896L469.402 560.8H471.802L472.762 560.896L473.914 560.8H475.066L476.218 560.896L477.562 560.8H478.618L479.866 560.896H480.826L481.978 560.8H483.226L484.474 560.896L485.722 560.8L486.874 560.896L488.026 560.8L489.178 560.896H490.33L491.386 560.8L492.25 560.896L493.402 560.8H494.554L495.706 560.896H497.05L498.01 560.8L499.162 560.896H500.41L501.754 560.8L502.618 560.896L504.058 560.8H505.114L506.074 560.896H507.514L508.57 560.8L509.722 560.896L510.97 560.8L511.93 560.896L513.082 560.8L514.042 561.856L513.946 563.104L514.042 564.16L512.602 565.312H510.202L509.146 565.216L507.898 565.312L506.65 565.216H505.594L504.538 565.312L503.194 565.216L502.138 565.312L500.89 565.216L499.834 565.312L498.49 565.216L497.434 565.312L496.378 565.216H495.034L494.074 565.312L492.826 565.216H491.674L490.33 565.312L489.37 565.216H488.218L486.874 565.312L485.722 565.216L484.762 565.312H483.226L482.074 565.216L481.018 565.312H480.058L478.714 565.216H477.466L476.506 565.312H474.106L472.954 565.216L471.61 566.464L471.802 567.52L471.706 568.864L471.802 569.92L471.706 571.072L471.898 572.32L471.706 574.72V575.776L471.898 577.024L471.706 578.08V579.424L471.802 580.48V581.632L471.898 582.88L471.61 584.032V586.336L471.802 588.736V589.888L472.954 591.04L474.01 591.136L475.258 591.04H478.81L480.058 591.136H482.074L483.322 591.04H484.57L485.626 591.136H490.138L491.578 591.04H492.73L493.978 591.136L494.938 591.04H495.994L497.434 591.136L498.49 591.04L499.738 591.136L500.89 591.04H506.458L507.898 591.136L508.954 591.04L509.914 591.136L511.162 592.096L511.354 593.344L511.258 594.304L510.106 595.456H507.61L506.746 595.552H501.85L500.698 595.456H497.434L496.282 595.552L495.13 595.456L493.978 595.552L492.634 595.456H491.578L490.426 595.552H488.986L487.834 595.456L486.778 595.552L485.626 595.456H484.474L483.514 595.552H480.922L479.77 595.456H477.37L476.314 595.552H475.162L474.202 595.456L472.954 595.552L471.61 596.704V597.856L471.898 599.104L471.61 600.256L471.802 601.312L471.61 602.464L471.706 603.616L471.61 604.864V606.016L471.898 607.168V609.472L471.706 610.816V613.024L471.802 614.272L471.706 615.52L471.802 616.672V617.824L471.898 618.88L471.706 620.128L471.898 621.28L471.802 622.528L472.762 623.584ZM557.858 629.248L556.514 629.056H555.266L554.018 628.864H553.154L551.81 628.576L550.658 628.48L549.506 628.192L548.354 627.904L547.394 627.52L546.242 627.136L545.282 626.848L544.034 626.272L543.17 625.792L542.114 625.408L541.058 624.832L539.906 624.256L537.89 623.008L537.026 622.336L536.258 621.472L535.298 620.8L534.338 619.936L533.57 619.072L532.898 618.304L532.226 617.44L531.65 616.576L530.882 615.616L530.21 614.56L529.73 613.6L528.962 612.64L527.906 610.432L527.426 609.472L527.138 608.32L526.85 607.168L526.274 606.112L526.178 605.056L525.602 603.904L525.41 602.752L525.506 601.6L525.122 600.544L524.93 599.392L524.738 598.144L525.026 596.896L524.93 595.84V593.536V592.288V591.232L524.834 589.984L525.122 588.832L525.218 587.68L525.41 586.624L525.794 585.376L526.082 584.416L526.178 583.168L526.466 582.112L526.85 580.96L527.618 580L527.906 578.944L528.386 577.888L528.674 576.832L529.538 575.776L530.018 574.72L530.69 573.856L531.362 572.992L532.13 571.936L532.514 571.168L533.57 570.208L534.242 569.44L535.202 568.672L535.97 567.904L536.642 567.136L537.506 566.464L538.754 565.792L539.33 565.12L540.674 564.448L541.634 563.872L542.402 563.392L543.65 562.816L544.514 562.432L545.858 561.952L546.914 561.664L547.97 561.28L549.122 560.896L550.178 560.704L551.042 560.416L552.386 560.224L553.538 560.128L554.69 559.936L555.746 559.84L556.898 559.744H557.954H560.354H561.41L562.562 559.84L563.906 559.936L565.154 560.032L566.21 560.32L567.362 560.416L568.514 560.8L569.762 560.992L570.914 561.376L571.682 561.76L572.93 562.144L573.986 562.624L575.234 563.008L576.002 563.488L577.058 564.064L577.922 564.64L578.882 565.216L579.842 565.888L581.09 566.752L581.666 567.424L582.818 568.096L583.682 569.056L584.354 569.824L585.122 570.688L585.698 571.456L586.658 572.416L587.33 573.376L587.906 574.336L588.482 575.296L589.154 576.352L589.634 577.408L589.922 578.368L590.594 579.52L590.69 580.576L591.362 581.728L591.458 582.688L591.938 583.84L592.226 584.992V586.144L592.418 587.392L592.802 588.448V589.6L593.186 590.848L592.898 592L593.186 593.152V595.36L593.09 596.512L592.898 597.664L593.09 598.816L592.61 600.064L592.514 601.216L592.322 602.272V603.424L592.034 604.48L591.65 605.728L591.17 606.784L590.978 607.936L590.69 608.992L590.114 609.952L589.73 611.008L589.25 612.064L588.674 613.024L587.81 614.08L587.522 614.944L586.85 615.904L586.178 616.864L585.41 617.728L584.738 618.592L583.97 619.552L583.01 620.224L582.05 621.088L581.378 621.856L580.418 622.528L579.554 623.2L578.69 623.872L577.73 624.448L576.578 624.928L575.714 625.504L574.37 625.984L573.314 626.464L572.354 626.944L571.202 627.232L570.05 627.52L569.186 628L567.842 628.288L566.978 628.48L565.826 628.672L564.674 628.864L563.426 628.96L562.274 629.056L561.218 629.152H560.066L557.858 629.248ZM561.602 624.64H562.85L563.81 624.448L564.962 624.352L566.114 624.16L567.266 623.872L568.226 623.488L569.378 623.296L570.53 622.912L571.874 622.336L572.738 622.048L573.602 621.472L574.658 620.8L575.618 620.224L576.866 619.744L577.538 619.072L578.69 618.208L579.362 617.44L580.418 616.672L581.09 615.808L581.954 615.04L582.626 614.08L583.202 613.216L583.778 612.16L584.45 611.2L585.026 610.336L585.602 609.184L585.986 608.224L586.466 607.072L586.658 606.112L587.33 604.96L587.426 603.808L587.618 602.656L588.098 601.6L588.194 600.352L588.482 599.2V598.048L588.578 596.992L588.77 595.84L588.482 593.44L588.578 592.384L588.482 591.232L588.194 589.984L588.386 588.928L588.194 587.872L587.81 586.72L587.522 585.472L587.33 584.416L586.946 583.264L586.562 582.208L586.082 581.248L585.602 580.096L585.314 579.136L584.546 578.08L584.162 577.216L583.298 576.256L582.626 575.2L582.242 574.432L581.474 573.472L580.418 572.608L579.65 571.936L579.074 571.072L577.058 569.632L576.29 568.96L575.234 568.384L574.274 567.808L573.314 567.232L572.258 566.848L571.01 566.272L569.954 565.984L569.186 565.696L566.786 565.024L565.538 564.736L564.77 564.544L563.426 564.448L562.274 564.352L561.122 564.256L560.066 564.16H557.858L556.706 564.256H555.362L554.306 564.352L552.962 564.64L551.81 564.832L550.946 565.12L549.602 565.312L548.642 565.696L547.49 566.08L546.338 566.368L545.282 566.848L544.418 567.328L543.362 567.904L542.21 568.576L541.25 569.248L540.386 569.824L539.426 570.496L538.562 571.36L537.794 572.128L536.93 572.992L536.162 573.76L535.586 574.72L534.914 575.68L534.146 576.544L533.474 577.504L532.898 578.656L532.61 579.616L531.842 580.768L531.746 581.824L531.362 582.784L530.882 583.936L530.402 585.088L530.114 586.24L529.922 587.392L529.73 588.544L529.634 589.696L529.538 590.848L529.442 591.904L529.25 593.056L529.538 595.36L529.346 596.512L529.73 597.664L529.826 598.816L529.922 599.968L530.114 601.12L530.402 602.272L530.498 603.424L530.69 604.48L531.074 605.632L531.458 606.592L531.842 607.648L532.322 608.704L532.802 609.856L533.282 610.816L533.858 611.776L534.722 612.736L535.298 613.6L536.066 614.656L536.834 615.52L537.698 616.288L538.37 617.056L539.234 617.824L540.002 618.592L540.77 619.264L541.73 619.936L542.882 620.608L543.842 620.992L544.898 621.664L546.818 622.624L548.162 622.912L548.93 623.392L549.986 623.584L551.234 623.968L552.29 624.16L553.634 624.352L554.498 624.544H555.938L556.994 624.64L557.954 624.832L561.602 624.64Z" fill="black"/>
        <path d="M654.779 555.529C649.316 555.486 643.484 555.861 637.977 556.984C634.747 559.295 631.842 561.907 629.24 564.737L633.641 565.892L624.753 570.287C617.154 580.931 613.36 593.527 613.145 604.584C612.879 618.416 617.189 630.253 624.449 638.708L627.549 638.469L626.812 641.223C630.021 644.366 633.663 646.924 637.674 648.81C642.335 650.046 647.148 651 651.722 651.455C647.907 649.049 644.46 645.71 641.489 641.808L635.831 639.662L638.064 636.757C632.102 626.892 628.59 614.882 628.525 604.822C628.482 599.923 629.262 594.525 630.758 589.148L624.688 590.904L632.124 584.725C633.706 580.216 635.744 575.793 638.216 571.739C642.66 564.461 648.579 558.339 655.581 555.542C655.299 555.542 655.039 555.542 654.779 555.521V555.529ZM664.231 557.821C655.299 557.643 647.343 564.301 641.554 573.777C639.495 577.137 637.739 580.845 636.33 584.639L640.471 588.953L635.072 588.368C633.338 594.069 632.384 599.793 632.427 604.779C632.492 614.275 636.07 626.307 642.031 635.716C642.075 635.803 642.14 635.889 642.183 635.954L647.451 637.494L646.086 641.266C651.44 647.575 657.966 651.651 665.055 651.477C669.5 651.369 673.597 649.526 677.218 646.447L675.266 640.746L681.012 642.588C682.768 640.507 684.372 638.122 685.824 635.521C690.941 626.329 693.846 614.687 693.868 605.625C693.889 596.216 690.984 584.075 685.716 574.471C683.114 569.723 679.993 565.641 676.437 562.707L673.38 566.083L668.221 558.365C666.92 558.035 665.597 557.847 664.231 557.821ZM667.267 590.731L668.589 592.118C669.326 592.877 670.042 593.657 670.757 594.438L673.922 594.091L673.684 597.95C675.396 600.205 676.914 602.676 677.976 605.516L678.237 606.21L677.976 606.882C676.35 611.326 672.621 616.399 668.329 619.998L667.071 621.039L665.836 619.998C661.478 616.399 657.446 611.825 655.039 606.73L654.627 605.863L655.061 604.996C657.402 600.335 661.695 595.912 665.857 592.031L667.267 590.731ZM667.115 596.259C664.47 598.795 661.977 601.484 660.156 604.107C664.362 604.432 669.196 604.367 673.055 604.172C671.516 601.31 669.413 598.752 667.115 596.259ZM660.242 608.009C662.063 610.849 664.448 613.538 667.071 615.879C669.478 613.559 671.689 610.676 673.12 608.074C669.261 608.291 664.557 608.356 660.242 608.009Z" fill="black"/>
        <path d="M712.692 626.944V625.792L712.884 624.544L712.788 623.488L712.692 622.336L712.596 621.088L712.788 619.936L712.596 618.688L712.692 617.536V616.384L712.884 615.328L712.788 614.08L712.884 612.928L712.692 611.872L712.884 610.72V609.568L712.788 608.32L712.692 607.264V606.016L712.884 604.864V603.808L712.692 602.464L712.596 601.312L712.788 600.16L712.692 599.008L712.788 597.952V594.4L712.596 593.248V590.944L712.692 589.792L712.596 588.64L712.788 587.488L712.884 586.432V585.184L712.692 583.936L712.788 582.784V579.424L712.692 578.176L712.788 577.024L712.884 575.968L712.692 574.72L712.884 573.568V572.416L712.692 571.36L712.788 570.112L712.692 568.96L712.884 567.712V566.656L712.596 565.408V564.352L712.884 563.2L712.692 561.952L713.748 560.8H716.34L717.204 560.896H718.452L719.412 560.8H720.756L721.908 560.896H723.156L724.212 560.8L725.46 560.896L726.612 560.8L727.572 560.896L728.82 560.8L729.876 560.896H731.124L732.18 560.8L733.428 560.896H734.292L735.444 560.8L736.596 560.896L737.748 560.8L739.092 560.896H740.148L741.3 560.8H743.508L744.756 560.896L745.812 561.088L747.06 561.184L748.02 561.28L749.268 561.568L750.42 561.856L751.476 562.144L752.532 562.72L753.396 563.008L754.548 563.584L755.604 564.256L756.66 564.736L757.428 565.504L758.292 566.272L759.732 567.904L760.596 568.768L761.172 569.824L761.556 570.784L762.132 571.84L762.612 572.896L762.804 573.952L763.092 575.104L763.284 576.064L763.476 577.312L763.86 578.368V579.424L763.764 581.824V582.88L763.572 584.032V585.088L763.188 586.24L762.804 587.392L762.612 588.544L761.94 589.6L761.46 590.56L761.076 591.616L760.212 592.48L759.732 593.344L759.06 594.304L758.1 594.976L757.332 595.744L756.276 596.416L755.508 597.088L754.26 597.664L753.396 598.24L752.34 598.624L751.38 599.104L750.132 599.392L748.02 599.968L746.868 600.256H745.428L744.276 600.352L743.412 600.448L741.108 600.544H737.556L736.5 600.448L735.252 600.544L734.292 600.448L733.236 600.544H730.836L729.588 600.448H726.132L725.076 600.544H724.116L722.868 600.448H718.26L717.3 601.696L717.204 602.848L717.108 603.904L717.204 605.152L717.108 606.304V607.36L717.3 608.512L717.204 609.76L717.396 612.064L717.108 613.12L717.3 614.272L717.396 615.424V617.728L717.204 618.784L717.108 619.936L717.396 621.184L717.3 622.24V623.488L717.396 624.544L717.3 625.792L717.108 626.944L716.052 628L715.092 628.096L713.844 628L712.692 626.944ZM718.548 596.032H719.412L720.756 596.128H721.812L723.06 596.032L723.924 596.128L725.172 596.032H726.228L727.476 596.128H728.724L729.78 596.032L730.74 596.128L731.892 596.032L733.14 596.128L734.292 596.032L735.348 596.128L736.788 596.032L737.844 596.128H741.108L743.412 596.032H744.468L745.524 595.84L746.772 595.744L747.924 595.456L749.076 595.264L750.036 594.88L751.188 594.4L752.052 594.016L753.3 593.44L753.972 592.768L754.836 592L755.892 591.232L756.66 590.368L757.044 589.408L757.812 588.448L758.1 587.392L758.292 586.432L758.868 585.184V584.128L758.964 582.976L759.06 581.92L759.252 579.616V578.56L758.964 577.408L758.58 576.256L758.388 575.2L758.196 574.144L757.428 573.088L756.948 572.032L756.276 571.168L755.892 570.112L754.932 569.344L753.972 568.672L753.108 567.904L752.34 567.328L751.092 566.944L750.036 566.56L748.788 566.176L747.636 565.792L746.484 565.696L744.276 565.312L742.932 565.216L740.628 565.312H739.668L738.42 565.216H736.02L734.772 565.312L733.524 565.216H731.316L730.164 565.312H727.764L726.516 565.216H722.964L722.004 565.312L720.852 565.216H719.412L718.356 565.312L717.3 566.464V567.52L717.396 568.672L717.204 569.92L717.396 570.88V572.032L717.3 573.28L717.204 574.432L717.108 575.488L717.396 576.736L717.204 577.888L717.3 579.04L717.204 580.096L717.108 581.248V582.4L717.396 583.456L717.108 584.704V587.008L717.3 588.16L717.204 589.216L717.108 590.368L717.204 591.52L717.3 592.576L717.108 593.824V594.976L718.548 596.032ZM821.181 626.944L820.701 625.888L820.029 624.832L819.837 623.872L819.069 622.72L818.589 621.664L818.493 620.608L818.013 619.648L817.245 618.688L817.053 617.536L816.477 616.48L815.997 615.52L815.421 614.464L815.037 613.312L814.749 612.352L814.077 611.296L812.733 610.24L811.293 610.144L810.141 610.24H809.277L808.029 610.144L806.973 610.24L805.533 610.144L804.381 610.24L803.229 610.144H802.365L801.213 610.24H798.621L797.469 610.144L796.317 610.24L795.453 610.144H794.205L792.861 610.24H791.613L790.653 610.144H782.589L781.245 610.24H780.093L779.229 610.144H776.829L775.197 611.296L774.525 612.256L774.429 613.312L773.661 614.368L773.373 615.424L772.797 616.48L772.413 617.536L771.837 618.688L771.645 619.552L771.069 620.704L770.493 621.76L770.301 622.72L769.629 623.776L769.341 624.928L768.861 625.888L768.189 627.04L766.653 628H765.213L764.157 628.096L763.293 626.944L763.677 625.888L764.061 624.832L764.829 623.872L765.213 622.816L765.501 621.664L765.981 620.608L766.365 619.552L767.133 618.592L767.613 617.536L767.901 616.48L768.381 615.424L768.765 614.464L769.245 613.312L769.917 612.256L770.301 611.2L770.589 610.24L771.261 609.184L771.549 608.128L772.221 607.072L772.509 605.92L772.797 604.864L773.373 603.904L773.853 602.752L774.429 601.888L774.621 600.832L775.101 599.68L775.869 598.624L776.253 597.568L776.733 596.608L776.925 595.552L777.693 594.496L778.173 593.44L778.461 592.288L778.941 591.328L779.325 590.272L779.901 589.216L780.381 588.064L780.861 587.008L781.053 585.952L781.725 584.992L782.109 583.936L782.685 582.976L782.877 581.824L783.357 580.864L783.933 579.712L784.605 578.656L785.085 577.696L785.181 576.544L785.949 575.488L786.333 574.528L786.909 573.376L787.005 572.32L787.581 571.264L787.965 570.304L788.733 569.248L789.021 568.288L789.309 567.232L790.077 566.176L790.269 565.024L790.941 564.064L791.133 562.912L791.901 561.952L793.341 560.896H794.877L795.837 560.8L797.565 561.856L797.949 563.008L798.621 564.064L799.005 565.12L799.581 566.176L799.965 567.136L800.349 568.288L800.637 569.248L801.213 570.208L801.597 571.264L802.269 572.416L802.461 573.376L803.229 574.432L803.709 575.584L803.901 576.64L804.477 577.6L804.861 578.752L805.245 579.712L805.821 580.864L806.205 581.824L806.877 582.88L807.069 583.936L807.837 584.992L808.605 587.008L809.085 588.064L809.565 589.216L809.853 590.176L810.525 591.232L810.813 592.384L811.197 593.44L811.869 594.4L812.349 595.552L812.637 596.512L813.213 597.664L813.693 598.624L814.173 599.68L814.845 601.792L815.421 602.752L815.901 603.904L817.053 606.016L817.149 607.072L817.821 608.128L818.397 609.088L818.877 610.144L819.069 611.2L819.549 612.352L820.221 613.312L820.413 614.464L821.085 615.424L821.565 616.48L821.949 617.536L822.429 618.592L822.717 619.552L823.293 620.704L823.581 621.664L824.541 623.776L825.021 624.928L825.693 625.984L826.077 627.04L825.213 628L823.869 628.096H822.621L821.181 626.944ZM778.749 605.728L779.997 605.824H782.013L783.453 605.728H784.413L785.373 605.824L786.621 605.728H787.773L788.925 605.824L790.077 605.728L791.229 605.824L792.285 605.728L793.629 605.824H794.781L795.645 605.728H796.989L797.949 605.824L799.197 605.728H801.501L802.557 605.824H803.709L805.053 605.728L806.301 605.824L807.069 605.728L808.221 605.824L809.469 605.728L810.621 605.824L811.485 604.672L810.813 603.616L810.429 602.656L809.949 601.504L809.373 600.448L809.085 599.392L808.509 598.432L808.029 597.376L807.741 596.224L806.589 594.112L806.205 593.056L805.725 592L805.533 590.944L804.861 589.984L804.477 588.928L803.805 587.776L803.325 586.816L803.229 585.664L802.749 584.704L802.173 583.552L800.829 580.384L800.445 579.328L799.677 578.368L799.197 577.216L799.005 576.16L798.429 575.104L797.853 574.048L797.373 572.992L796.989 572.032L796.701 570.976L795.933 569.92L795.837 568.768L795.357 567.808L794.397 567.712L793.917 568.768L793.341 569.92L792.861 570.976L792.573 571.936L791.997 573.088L791.613 574.048L791.133 575.2L790.557 576.16L790.173 577.312L789.021 579.424L788.829 580.384L788.253 581.536L787.773 582.592L787.293 583.648L787.005 584.608L786.525 585.664L785.949 586.816L785.565 587.776L785.085 588.928L784.605 589.888L784.125 591.04L783.453 592L783.261 593.152L782.781 594.208L782.301 595.168L781.917 596.32L781.437 597.376L780.765 598.336L780.477 599.392L779.709 600.544L779.517 601.6L778.941 602.656L778.653 603.712L778.173 604.768L778.749 605.728ZM843.233 623.68H844.577L845.729 623.584L846.785 623.68H854.561L855.905 623.584L856.961 623.68H859.361L860.609 623.584H864.065L865.121 623.68H867.233L868.673 623.584H869.729L870.881 623.68H879.905L881.057 623.584L882.017 624.64L882.113 625.792V626.944L880.673 628.096H874.913L874.049 628H871.649L870.401 628.096H868.193L867.137 628H865.793L864.737 628.096L863.777 628H862.625L861.281 628.096L860.225 628L858.977 628.096H856.769L855.905 628L854.753 628.096H852.257L851.201 628L849.953 628.096H848.705L847.649 628L846.497 628.096L845.633 628H844.289L843.137 628.096L841.985 628L840.929 628.096L839.969 628H838.529L837.665 626.848V625.696L837.569 624.544L837.377 623.392V622.24L837.569 621.184L837.377 619.936L837.665 618.688L837.377 617.536V616.384L837.665 615.232L837.569 614.08V612.928L837.665 611.872L837.377 610.72V609.472L837.473 608.32V604.864L837.377 603.808L837.569 602.56L837.665 601.312V600.256L837.377 599.104L837.665 597.856L837.377 596.704L837.569 595.648V594.496L837.377 593.248V591.04L837.473 589.888V588.736L837.665 587.584L837.377 586.336L837.665 585.088L837.473 583.936L837.377 582.784L837.665 581.728L837.377 580.576L837.665 579.424L837.569 578.272L837.473 577.024V575.872L837.569 574.816L837.473 573.664V572.512L837.569 571.36V570.208L837.377 568.96L837.473 567.712V565.408L837.569 564.352L837.665 563.104L837.377 562.048L838.625 560.896L839.681 560.8H840.929L842.081 561.952L841.985 563.2L842.273 564.352L841.985 565.408L842.177 566.56L842.273 567.616L842.177 568.864L841.985 570.016L842.081 571.072L842.177 572.32L842.081 573.472V574.528L842.177 575.68V576.832L842.081 577.888L842.177 579.136L842.081 580.192L842.177 581.344L842.081 582.496L842.273 583.648L842.081 584.896V587.008L841.985 588.256L842.273 589.312V592.768L841.985 593.92L842.177 595.072L842.273 596.32L842.081 597.376L842.273 598.432L842.177 599.68L841.985 600.736L842.177 601.984L842.273 603.136L842.177 604.192L841.985 605.44L842.177 606.496L842.081 607.648V608.8L842.177 609.952V612.256L842.081 613.312L842.177 614.56L841.985 616.864L842.273 618.016V620.128L842.081 621.376L842.177 622.432L843.233 623.68ZM944.368 626.944L943.888 625.888L943.216 624.832L943.024 623.872L942.256 622.72L941.776 621.664L941.68 620.608L941.2 619.648L940.432 618.688L940.24 617.536L939.664 616.48L939.184 615.52L938.608 614.464L938.224 613.312L937.936 612.352L937.264 611.296L935.92 610.24L934.48 610.144L933.328 610.24H932.464L931.216 610.144L930.16 610.24L928.72 610.144L927.568 610.24L926.416 610.144H925.552L924.4 610.24H921.808L920.656 610.144L919.504 610.24L918.64 610.144H917.392L916.048 610.24H914.8L913.84 610.144H905.776L904.432 610.24H903.28L902.416 610.144H900.016L898.384 611.296L897.712 612.256L897.616 613.312L896.848 614.368L896.56 615.424L895.984 616.48L895.6 617.536L895.024 618.688L894.832 619.552L894.256 620.704L893.68 621.76L893.488 622.72L892.816 623.776L892.528 624.928L892.048 625.888L891.376 627.04L889.84 628H888.4L887.344 628.096L886.48 626.944L886.864 625.888L887.248 624.832L888.016 623.872L888.4 622.816L888.688 621.664L889.168 620.608L889.552 619.552L890.32 618.592L890.8 617.536L891.088 616.48L891.568 615.424L891.952 614.464L892.432 613.312L893.104 612.256L893.488 611.2L893.776 610.24L894.448 609.184L894.736 608.128L895.408 607.072L895.696 605.92L895.984 604.864L896.56 603.904L897.04 602.752L897.616 601.888L897.808 600.832L898.288 599.68L899.056 598.624L899.44 597.568L899.92 596.608L900.112 595.552L900.88 594.496L901.36 593.44L901.648 592.288L902.128 591.328L902.512 590.272L903.088 589.216L903.568 588.064L904.048 587.008L904.24 585.952L904.912 584.992L905.296 583.936L905.872 582.976L906.064 581.824L906.544 580.864L907.12 579.712L907.792 578.656L908.272 577.696L908.368 576.544L909.136 575.488L909.52 574.528L910.096 573.376L910.192 572.32L910.768 571.264L911.152 570.304L911.92 569.248L912.208 568.288L912.496 567.232L913.264 566.176L913.456 565.024L914.128 564.064L914.32 562.912L915.088 561.952L916.528 560.896H918.064L919.024 560.8L920.752 561.856L921.136 563.008L921.808 564.064L922.192 565.12L922.768 566.176L923.152 567.136L923.536 568.288L923.824 569.248L924.4 570.208L924.784 571.264L925.456 572.416L925.648 573.376L926.416 574.432L926.896 575.584L927.088 576.64L927.664 577.6L928.048 578.752L928.432 579.712L929.008 580.864L929.392 581.824L930.064 582.88L930.256 583.936L931.024 584.992L931.792 587.008L932.272 588.064L932.752 589.216L933.04 590.176L933.712 591.232L934 592.384L934.384 593.44L935.056 594.4L935.536 595.552L935.824 596.512L936.4 597.664L936.88 598.624L937.36 599.68L938.032 601.792L938.608 602.752L939.088 603.904L940.24 606.016L940.336 607.072L941.008 608.128L941.584 609.088L942.064 610.144L942.256 611.2L942.736 612.352L943.408 613.312L943.6 614.464L944.272 615.424L944.752 616.48L945.136 617.536L945.616 618.592L945.904 619.552L946.48 620.704L946.768 621.664L947.728 623.776L948.208 624.928L948.88 625.984L949.264 627.04L948.4 628L947.056 628.096H945.808L944.368 626.944ZM901.936 605.728L903.184 605.824H905.2L906.64 605.728H907.6L908.56 605.824L909.808 605.728H910.96L912.112 605.824L913.264 605.728L914.416 605.824L915.472 605.728L916.816 605.824H917.968L918.832 605.728H920.176L921.136 605.824L922.384 605.728H924.688L925.744 605.824H926.896L928.24 605.728L929.488 605.824L930.256 605.728L931.408 605.824L932.656 605.728L933.808 605.824L934.672 604.672L934 603.616L933.616 602.656L933.136 601.504L932.56 600.448L932.272 599.392L931.696 598.432L931.216 597.376L930.928 596.224L929.776 594.112L929.392 593.056L928.912 592L928.72 590.944L928.048 589.984L927.664 588.928L926.992 587.776L926.512 586.816L926.416 585.664L925.936 584.704L925.36 583.552L924.016 580.384L923.632 579.328L922.864 578.368L922.384 577.216L922.192 576.16L921.616 575.104L921.04 574.048L920.56 572.992L920.176 572.032L919.888 570.976L919.12 569.92L919.024 568.768L918.544 567.808L917.584 567.712L917.104 568.768L916.528 569.92L916.048 570.976L915.76 571.936L915.184 573.088L914.8 574.048L914.32 575.2L913.744 576.16L913.36 577.312L912.208 579.424L912.016 580.384L911.44 581.536L910.96 582.592L910.48 583.648L910.192 584.608L909.712 585.664L909.136 586.816L908.752 587.776L908.272 588.928L907.792 589.888L907.312 591.04L906.64 592L906.448 593.152L905.968 594.208L905.488 595.168L905.104 596.32L904.624 597.376L903.952 598.336L903.664 599.392L902.896 600.544L902.704 601.6L902.128 602.656L901.84 603.712L901.36 604.768L901.936 605.728ZM987.981 629.248L986.925 629.056L985.677 629.152L983.373 628.768L982.125 628.576L980.877 628.48L979.725 628.192L978.573 627.904L977.613 627.616L976.653 627.424L975.501 627.04L974.253 626.56L973.101 626.176L972.045 625.696L971.181 625.216L970.125 624.544L969.261 624.064L968.205 623.392L967.149 622.72L966.381 622.144L965.133 621.376L964.461 620.512L963.405 619.744L962.733 618.976L962.061 618.112L961.293 617.248L960.333 616.288L959.853 615.328L958.989 614.464L958.605 613.504L958.029 612.544L957.357 611.392L956.877 610.432L956.493 609.376L956.109 608.32L955.821 607.168L955.437 606.016L954.957 604.96L954.573 603.808V602.656L954.285 601.504L954.093 600.352V599.296L953.805 598.048L953.613 596.896L953.517 595.648L953.613 593.344V592.192L953.805 591.04V589.984L953.997 588.64L954.381 587.584L954.285 586.528L954.765 585.376L954.861 584.224L955.341 582.976L955.437 581.92L956.013 580.864L956.493 579.712L956.781 578.656L957.261 577.6L958.029 576.544L958.605 575.68L958.989 574.72L959.565 573.664L960.333 572.704L961.197 571.84L961.677 570.88L962.445 570.016L963.501 569.248L964.269 568.384L965.133 567.712L966.093 566.944L967.725 565.6L968.781 565.024L969.549 564.352L970.893 563.872L971.757 563.392L972.909 562.816L973.869 562.432L975.117 561.952L976.269 561.664L977.229 561.184L978.285 560.992L979.341 560.608L981.549 560.224L982.893 560.128L983.853 559.84H985.197L986.445 559.744H987.693L989.709 559.648L991.149 559.744H992.205L993.357 559.936L994.413 560.128L995.565 560.224L996.909 560.416L999.405 560.896L1000.27 561.184L1001.32 561.568L1002.48 561.952L1003.72 562.24L1004.88 562.624L1005.93 563.104L1006.89 563.584L1007.95 564.16L1009 564.544L1010.35 565.216L1012.08 566.272L1012.56 567.904L1011.6 569.728L1009.87 570.016L1009 569.44L1007.76 568.96L1006.8 568.576L1005.84 568.096L1004.97 567.616L1003.82 567.04L1001.8 566.272L1000.36 566.08L999.309 565.696L998.445 565.408L997.101 565.12L995.085 564.64L993.933 564.544L992.877 564.448L991.437 564.352L990.573 564.256L989.421 564.16H987.021H985.773L984.621 564.352L983.373 564.448L982.125 564.544L981.261 564.832L980.109 565.024L978.957 565.312L977.709 565.6L976.653 565.984L975.501 566.368L974.637 566.944L973.581 567.424L972.525 567.904L971.373 568.384L970.413 569.056L969.645 569.824L968.685 570.496L967.725 571.168L966.861 571.936L965.901 572.8L965.325 573.76L964.461 574.624L963.789 575.488L963.021 576.544L962.445 577.504L961.965 578.464L961.389 579.424L961.101 580.576L960.333 581.632L960.141 582.592L959.853 583.84L959.277 584.992V585.952L958.893 587.104L958.701 588.256V589.504L958.605 590.656L958.317 591.808V592.96L958.125 595.264L958.509 596.416L958.317 597.568L958.605 598.72V599.872L958.797 601.024L959.181 602.176L959.565 603.232V604.384L960.045 605.44L960.525 606.688L960.909 607.648L961.581 608.8L961.869 609.76L962.541 610.816L962.925 611.68L963.693 612.64L964.365 613.696L965.229 614.56L965.997 615.424L966.861 616.192L967.341 616.96L968.301 617.632L969.453 618.496L970.317 619.168L971.277 619.84L972.141 620.32L973.293 620.896L974.061 621.376L975.213 621.952L976.077 622.336L977.517 622.72L978.381 623.2L979.533 623.392L980.589 623.776L981.645 624.064L982.989 624.16L984.141 624.448H985.293L986.349 624.64L987.597 624.736H988.749H990.861L992.301 624.64L993.261 624.736L994.605 624.64L995.757 624.352H997.005L998.157 624.064L999.213 623.872L1000.36 623.776L1001.61 623.488L1002.76 623.104L1003.53 622.816L1004.68 622.624L1005.84 622.144L1006.99 621.76L1008.14 621.472L1009.39 620.992L1010.35 620.512L1011.12 620.032L1012.08 620.416L1012.27 621.472L1011.88 622.528L1011.98 623.584L1010.54 625.12L1009.87 625.504L1008.52 626.08L1007.56 626.368L1006.32 626.752L1005.36 627.04L1004.4 627.328L1003.24 627.616L1002 627.808L1000.65 628.096L999.501 628.384L998.349 628.48L997.389 628.576L995.181 628.864L993.741 629.056L991.533 629.248H990.381H987.981ZM1034.11 623.584L1035.07 623.68L1036.42 623.584L1037.28 623.68H1038.43L1039.49 623.584H1040.83L1042.08 623.68H1047.65L1048.99 623.584H1049.86L1050.91 623.68H1053.31L1054.66 623.584H1055.71L1056.77 623.68H1058.02L1059.07 623.584H1060.22L1061.47 623.68L1062.34 623.584H1068.19L1069.25 623.68L1070.5 623.584L1071.74 623.68L1072.61 623.584L1073.95 623.68L1074.91 623.584L1076.26 624.64L1076.16 625.792L1075.87 626.848L1074.72 628.096L1073.38 628L1072.32 628.096L1071.26 628L1069.92 628.096L1068.96 628L1067.71 628.096H1065.22L1064.16 628L1063.2 628.096L1061.76 628H1060.9L1059.65 628.096L1058.4 628L1057.25 628.096H1055.9L1055.04 628H1050.43L1049.28 628.096H1041.12L1039.68 628L1038.53 628.096H1036.22L1035.36 628L1034.02 628.096H1032.96L1031.71 628H1029.22L1028.26 626.848L1028.35 625.696L1028.16 624.544L1028.35 623.392L1028.26 622.336L1028.06 621.184L1028.26 619.936L1028.06 618.784L1028.35 617.536V616.48L1028.06 615.328V614.08L1028.35 613.024V611.776L1028.16 610.72L1028.26 609.568V608.32L1028.16 607.264L1028.35 606.016L1028.16 604.864L1028.06 603.808L1028.35 602.56V601.312L1028.26 600.16L1028.06 599.104V595.552L1028.26 594.496L1028.06 593.248L1028.26 592.096L1028.06 590.944L1028.35 589.888L1028.26 588.736L1028.06 587.584L1028.35 586.336L1028.26 585.088L1028.35 584.032V582.784L1028.26 581.728L1028.35 580.48L1028.06 579.328L1028.35 578.272L1028.06 577.024V575.968L1028.35 574.72L1028.06 573.664V571.264L1028.16 570.208V568.864L1028.06 567.712V566.56L1028.35 565.504V563.2L1028.06 561.952L1029.22 560.896H1030.46L1031.81 560.8L1032.77 560.896H1034.11L1035.26 560.8L1036.22 560.896L1037.38 560.8L1038.43 560.896L1039.78 560.8L1040.93 560.896H1044.38L1045.63 560.8L1046.59 560.896L1047.74 560.8L1048.99 560.896L1050.05 560.8L1051.1 560.896L1052.45 560.8L1053.31 560.896L1054.66 560.8L1055.62 560.896H1060.42L1061.47 560.8L1062.82 560.896H1063.87L1065.12 560.8L1066.27 560.896H1067.33L1068.29 560.8L1069.54 560.896H1074.14L1075.3 561.856L1075.2 563.104L1075.1 564.16L1073.47 565.312L1072.61 565.216L1071.46 565.312H1070.02L1068.77 565.216L1067.71 565.312H1063.1L1061.76 565.216L1060.61 565.312L1059.74 565.216H1053.79L1052.45 565.312L1051.58 565.216H1048.99L1048.03 565.312H1045.82L1044.38 565.216H1043.33L1042.27 565.312H1039.87L1038.82 565.216H1037.38L1036.42 565.312L1035.17 565.216L1033.82 565.312L1032.77 566.464L1032.96 567.52V568.864L1032.86 570.016L1032.96 571.072L1032.77 572.32L1032.86 573.568L1032.77 574.72L1032.86 575.776L1032.77 577.024L1032.86 578.176V579.424L1032.67 580.48L1032.96 581.632L1032.77 582.88L1032.96 584.128L1032.86 585.28L1032.67 586.336L1032.86 587.488L1032.67 588.832V589.888L1033.92 591.04L1035.26 591.136L1036.32 591.04L1037.57 591.136H1038.62L1039.68 591.04H1044.29L1045.63 591.136L1046.78 591.04H1053.6L1055.04 591.136H1055.9L1057.06 591.04H1058.3L1059.55 591.136H1060.61L1061.66 591.04H1067.71L1068.77 591.136H1071.17L1072.32 592.192V593.344L1072.13 594.304L1071.26 595.456H1070.11L1068.67 595.552H1067.52L1066.66 595.456L1065.12 595.552H1062.91L1061.76 595.456L1060.61 595.552L1059.36 595.456H1058.21L1057.06 595.552L1056.1 595.456L1054.75 595.552L1053.6 595.456L1052.54 595.552L1051.39 595.456L1050.34 595.552L1048.99 595.456L1048.03 595.552H1045.63L1044.48 595.456L1043.14 595.552L1042.27 595.456L1041.12 595.552L1039.87 595.456H1036.32L1035.17 595.552H1034.02L1032.77 596.608L1032.86 597.856L1032.96 599.008L1032.77 600.256L1032.86 601.312L1032.77 602.56L1032.86 603.712V607.264L1032.96 608.32L1032.77 609.472V610.816L1032.67 611.872L1032.77 613.024L1032.86 614.272L1032.77 615.424L1032.67 616.672V618.88L1032.86 620.128V622.528L1034.11 623.584Z" fill="black"/>
        <circle cx="680" cy="491" r="419.5" stroke="#8D6E63"/>
    </g>
    <defs>
        <clipPath id="clip0_1_138">
            <rect width="1588" height="929" fill="white" transform="translate(-310 77)"/>
        </clipPath>
    </defs>
</svg>
